<svg id="svg" version="1.1" xmlns="http://www.w3.org/2000/svg" xmlns:xlink="http://www.w3.org/1999/xlink" width="400" height="400" viewBox="0, 0, 400,400"><g id="svgg"><path id="path0" d="M156.007 41.030 C 155.055 41.117,154.075 41.429,153.830 41.724 C 153.585 42.020,153.148 42.261,152.858 42.261 C 152.569 42.261,152.131 42.426,151.884 42.626 C 151.638 42.827,150.892 43.428,150.227 43.961 C 145.362 47.859,142.656 59.260,145.275 64.817 C 145.435 65.155,145.843 65.987,146.184 66.666 C 147.085 68.465,147.003 68.788,144.798 72.078 C 142.504 75.501,139.545 81.111,139.197 82.697 C 139.067 83.289,138.807 83.868,138.618 83.984 C 138.430 84.101,138.275 84.561,138.274 85.008 C 138.273 85.455,138.022 86.298,137.718 86.882 C 137.413 87.466,137.164 88.347,137.164 88.840 C 137.164 89.333,136.884 90.357,136.542 91.115 C 135.733 92.907,135.546 112.568,136.329 113.511 C 136.584 113.818,136.903 114.878,137.039 115.867 C 137.174 116.856,137.507 118.090,137.778 118.610 C 138.050 119.130,138.278 119.889,138.286 120.297 C 138.293 120.704,138.545 121.362,138.844 121.758 C 139.143 122.153,139.388 122.745,139.388 123.072 C 139.388 123.793,142.384 129.686,143.875 131.900 C 145.446 134.232,145.313 134.742,142.817 135.939 C 141.645 136.502,139.640 137.591,138.362 138.360 C 137.084 139.130,135.952 139.759,135.845 139.759 C 135.548 139.759,133.288 141.390,133.148 141.705 C 133.080 141.858,132.882 141.983,132.708 141.983 C 132.190 141.983,123.504 148.096,122.706 149.022 C 122.604 149.141,121.688 149.899,120.671 150.708 C 114.410 155.683,106.553 163.974,101.013 171.455 C 99.804 173.086,98.720 174.504,98.602 174.606 C 98.374 174.804,95.782 178.765,93.872 181.835 C 93.238 182.854,92.084 184.940,91.309 186.469 C 90.533 187.998,89.690 189.470,89.435 189.739 C 89.180 190.009,88.971 190.459,88.971 190.739 C 88.971 191.020,88.554 192.033,88.044 192.992 C 87.535 193.951,87.118 194.940,87.118 195.191 C 87.118 195.441,86.867 195.854,86.562 196.108 C 86.256 196.361,86.006 196.898,86.006 197.301 C 86.006 197.703,85.781 198.475,85.506 199.016 C 84.436 201.123,83.269 204.121,82.669 206.302 C 82.354 207.450,81.955 208.690,81.178 210.936 C 80.932 211.650,80.615 212.984,80.474 213.902 C 80.332 214.819,80.018 215.934,79.775 216.380 C 79.532 216.825,79.333 217.764,79.333 218.466 C 79.333 219.168,79.082 220.342,78.777 221.073 C 78.471 221.805,78.221 223.093,78.221 223.935 C 78.221 224.776,77.985 226.325,77.697 227.376 C 76.374 232.202,76.253 260.696,77.548 262.341 C 77.735 262.578,77.986 263.996,78.105 265.492 C 78.225 266.987,78.550 268.662,78.828 269.212 C 79.106 269.763,79.339 270.931,79.346 271.807 C 79.353 272.684,79.597 273.818,79.889 274.328 C 80.180 274.838,80.424 275.849,80.432 276.574 C 80.439 277.300,80.690 278.217,80.989 278.613 C 81.288 279.009,81.544 279.833,81.557 280.445 C 81.570 281.057,81.826 281.881,82.125 282.277 C 82.424 282.672,82.674 283.423,82.681 283.945 C 82.687 284.467,82.938 285.217,83.237 285.613 C 83.536 286.009,83.781 286.629,83.781 286.991 C 83.781 287.353,84.056 288.280,84.391 289.051 C 85.308 291.161,85.886 292.521,86.562 294.161 C 87.873 297.346,90.530 302.965,90.856 303.244 C 90.975 303.346,91.641 304.513,92.337 305.839 C 93.899 308.814,99.877 317.859,101.280 319.370 C 101.849 319.981,102.314 320.619,102.315 320.786 C 102.316 320.954,102.525 321.306,102.780 321.570 C 103.035 321.833,104.150 323.114,105.257 324.416 C 107.341 326.867,116.576 336.197,119.184 338.487 C 122.549 341.440,132.767 348.842,133.480 348.842 C 133.671 348.842,133.828 349.005,133.828 349.205 C 133.828 349.405,134.245 349.673,134.754 349.801 C 135.264 349.929,135.681 350.166,135.681 350.328 C 135.681 350.490,136.140 350.806,136.701 351.030 C 137.261 351.254,138.304 351.794,139.018 352.230 C 141.490 353.741,145.137 355.511,145.783 355.513 C 146.140 355.514,146.432 355.650,146.432 355.817 C 146.432 357.337,159.695 357.378,162.460 355.866 C 162.814 355.673,163.315 355.513,163.572 355.512 C 163.830 355.511,164.511 355.200,165.085 354.821 L 166.129 354.132 164.714 353.390 C 163.936 352.982,162.298 352.098,161.075 351.424 C 159.852 350.751,158.267 349.897,157.553 349.527 C 153.129 347.235,153.134 343.281,157.562 343.281 C 158.349 343.281,159.089 343.437,159.207 343.628 C 159.325 343.819,160.294 344.409,161.361 344.939 C 162.427 345.469,163.800 346.221,164.411 346.610 C 165.023 347.000,166.274 347.696,167.192 348.157 C 168.109 348.618,169.110 349.192,169.416 349.431 C 170.721 350.452,171.527 350.380,172.775 349.132 C 174.042 347.866,176.460 344.311,176.460 343.715 C 176.460 343.526,176.710 343.164,177.016 342.910 C 177.861 342.208,177.719 341.980,175.811 340.980 C 165.745 335.700,164.608 334.899,164.609 333.086 C 164.610 331.056,168.293 329.159,169.245 330.699 C 169.379 330.916,169.847 331.249,170.286 331.440 C 170.725 331.631,171.376 331.954,171.733 332.159 C 172.910 332.833,173.660 333.234,175.348 334.092 C 176.265 334.558,177.244 335.156,177.522 335.420 C 178.976 336.798,179.526 334.264,178.868 329.218 C 177.996 322.530,175.252 317.423,170.317 313.300 C 168.154 311.492,167.231 310.909,165.246 310.098 C 164.991 309.994,164.282 309.588,163.670 309.196 C 163.058 308.805,161.923 308.137,161.147 307.713 C 160.371 307.288,159.537 306.776,159.293 306.574 C 159.050 306.372,157.183 304.979,155.144 303.479 C 150.842 300.313,145.211 294.890,142.379 291.186 C 141.293 289.764,140.299 288.517,140.171 288.415 C 140.043 288.313,139.189 287.062,138.273 285.634 C 135.818 281.806,135.710 281.628,135.332 280.759 C 135.142 280.320,134.808 279.851,134.592 279.718 C 134.375 279.584,134.198 279.171,134.198 278.800 C 134.198 278.429,133.948 277.918,133.642 277.665 C 133.336 277.411,133.086 276.910,133.086 276.552 C 133.086 276.195,132.836 275.694,132.530 275.440 C 132.224 275.186,131.974 274.679,131.974 274.313 C 131.974 273.946,131.724 273.133,131.418 272.505 C 131.112 271.876,130.612 270.848,130.306 270.220 C 130.000 269.592,129.750 268.777,129.750 268.409 C 129.750 268.041,129.501 267.262,129.196 266.678 C 128.891 266.094,128.641 265.177,128.640 264.639 C 128.639 264.102,128.388 263.184,128.084 262.600 C 127.779 262.016,127.529 260.934,127.528 260.195 C 127.527 259.456,127.293 258.192,127.009 257.387 C 125.855 254.117,125.967 233.477,127.145 232.298 C 127.354 232.089,127.525 231.279,127.525 230.498 C 127.525 229.716,127.776 228.478,128.082 227.746 C 128.387 227.014,128.639 226.061,128.640 225.627 C 128.641 225.193,128.891 224.360,129.196 223.776 C 129.501 223.192,129.750 222.348,129.750 221.901 C 129.750 221.453,129.995 220.763,130.294 220.367 C 130.593 219.972,130.844 219.369,130.850 219.029 C 130.857 218.689,131.100 217.938,131.392 217.361 C 131.683 216.784,132.475 215.144,133.152 213.718 C 134.250 211.407,138.324 204.298,139.102 203.336 C 139.267 203.133,139.733 202.565,140.137 202.075 C 140.541 201.585,140.871 201.081,140.871 200.955 C 140.871 200.828,141.580 199.953,142.447 199.008 C 143.313 198.064,144.523 196.686,145.134 195.947 C 148.984 191.294,158.421 183.754,163.858 180.987 C 165.561 180.120,166.325 179.710,167.470 179.052 C 167.827 178.847,168.369 178.581,168.675 178.460 C 169.633 178.083,171.784 177.109,172.810 176.589 C 173.351 176.314,174.102 176.084,174.478 176.077 C 174.854 176.071,175.486 175.820,175.882 175.521 C 176.278 175.222,177.037 174.977,177.569 174.977 C 178.100 174.977,178.708 174.804,178.919 174.594 C 179.130 174.383,180.122 174.058,181.125 173.873 C 182.127 173.687,183.698 173.371,184.615 173.171 C 189.508 172.105,191.338 171.911,197.961 171.753 C 202.196 171.653,206.303 171.747,207.878 171.982 C 209.356 172.202,211.774 172.556,213.252 172.770 C 214.729 172.983,216.097 173.317,216.291 173.511 C 216.486 173.706,217.212 173.865,217.905 173.865 C 218.598 173.865,219.691 174.087,220.333 174.360 C 222.024 175.076,223.932 175.742,225.211 176.062 C 225.824 176.216,226.658 176.510,227.065 176.717 C 227.471 176.923,228.471 177.385,229.286 177.743 C 230.102 178.102,231.019 178.544,231.325 178.727 C 231.631 178.910,232.132 179.154,232.437 179.269 C 232.743 179.385,233.244 179.635,233.550 179.825 C 233.855 180.016,234.356 180.279,234.662 180.410 C 241.476 183.332,254.484 194.635,259.338 201.854 C 259.886 202.669,260.450 203.420,260.590 203.522 C 260.731 203.624,261.722 205.209,262.792 207.044 C 263.863 208.879,264.893 210.630,265.080 210.936 C 265.460 211.556,267.466 215.702,268.219 217.424 C 268.643 218.394,269.445 220.844,271.569 227.668 C 271.863 228.613,272.104 229.885,272.104 230.494 C 272.104 231.104,272.363 232.333,272.679 233.225 C 273.524 235.610,273.528 254.219,272.683 256.706 C 272.365 257.645,272.104 258.927,272.104 259.555 C 272.104 260.184,271.863 261.471,271.569 262.415 C 268.425 272.516,267.807 274.041,263.887 281.372 C 263.066 282.909,259.066 288.945,258.606 289.342 C 258.369 289.546,257.406 290.714,256.466 291.937 C 253.153 296.245,246.422 302.489,242.000 305.356 C 241.124 305.923,240.324 306.496,240.222 306.629 C 240.120 306.761,239.370 307.233,238.554 307.677 C 237.739 308.121,236.571 308.805,235.959 309.196 C 235.348 309.588,234.597 310.006,234.291 310.125 C 233.985 310.244,233.485 310.497,233.179 310.687 C 232.873 310.878,232.414 311.116,232.159 311.216 C 230.957 311.691,230.697 311.826,229.657 312.512 C 229.045 312.915,228.317 313.356,228.038 313.491 C 224.952 314.987,218.750 323.700,218.708 326.599 C 218.701 327.108,218.456 327.943,218.165 328.452 C 217.640 329.370,217.361 335.495,217.823 335.957 C 218.034 336.168,220.431 334.995,222.614 333.613 C 223.225 333.226,223.976 332.812,224.282 332.693 C 224.588 332.574,225.088 332.321,225.394 332.132 C 225.700 331.942,226.309 331.631,226.748 331.440 C 227.187 331.249,227.656 330.916,227.789 330.699 C 228.260 329.938,230.413 330.261,231.322 331.230 C 232.972 332.986,232.077 335.473,229.390 336.603 C 228.925 336.798,227.711 337.453,226.691 338.058 C 225.672 338.663,223.972 339.586,222.913 340.108 C 221.854 340.631,220.885 341.224,220.760 341.428 C 220.634 341.631,220.207 341.798,219.811 341.798 C 219.030 341.798,218.916 342.191,219.408 343.193 C 219.582 343.547,220.037 344.504,220.420 345.320 C 221.004 346.563,223.819 350.695,224.082 350.695 C 224.236 350.695,228.549 348.418,230.769 347.164 C 231.993 346.473,233.353 345.744,233.792 345.544 C 234.231 345.344,234.699 345.003,234.833 344.787 C 234.967 344.570,235.380 344.393,235.750 344.393 C 236.121 344.393,236.632 344.143,236.886 343.837 C 237.593 342.985,239.784 343.140,240.813 344.115 C 242.665 345.871,241.616 347.994,237.998 349.816 C 236.877 350.381,235.876 350.935,235.774 351.047 C 235.672 351.159,234.754 351.668,233.735 352.178 C 232.715 352.688,231.798 353.192,231.696 353.298 C 231.594 353.404,231.052 353.692,230.491 353.938 C 229.930 354.185,229.472 354.553,229.472 354.756 C 229.472 355.127,232.427 356.627,233.159 356.627 C 233.374 356.627,233.550 356.793,233.550 356.997 C 233.550 357.201,234.067 357.368,234.698 357.368 C 235.330 357.368,236.396 357.628,237.066 357.946 C 238.536 358.644,246.056 358.527,248.749 357.765 C 251.332 357.034,257.385 354.199,260.797 352.123 C 261.409 351.750,262.243 351.274,262.651 351.065 C 263.058 350.855,263.892 350.355,264.504 349.952 C 265.116 349.550,265.867 349.107,266.172 348.969 C 266.478 348.831,267.336 348.246,268.079 347.668 C 268.822 347.090,269.538 346.617,269.670 346.617 C 269.803 346.617,270.112 346.448,270.359 346.240 C 270.605 346.033,271.974 344.998,273.401 343.941 C 274.829 342.883,276.190 341.843,276.428 341.630 C 276.665 341.416,277.414 340.825,278.092 340.315 C 279.547 339.221,282.056 337.009,284.189 334.940 C 285.030 334.124,286.041 333.207,286.436 332.901 C 287.080 332.403,288.712 330.669,293.435 325.468 C 294.259 324.561,295.927 322.481,297.142 320.846 C 298.357 319.211,299.727 317.376,300.185 316.768 C 301.316 315.271,303.728 311.714,304.080 311.029 C 304.236 310.723,304.694 309.972,305.096 309.361 C 305.499 308.749,306.000 307.915,306.209 307.507 C 306.419 307.099,306.921 306.265,307.323 305.653 C 307.726 305.042,308.152 304.291,308.271 303.985 C 308.390 303.679,308.643 303.179,308.834 302.873 C 309.024 302.567,309.274 302.067,309.390 301.761 C 309.505 301.455,309.755 300.955,309.946 300.649 C 310.136 300.343,310.386 299.842,310.502 299.537 C 310.617 299.231,310.867 298.730,311.058 298.424 C 311.248 298.119,311.507 297.618,311.633 297.312 C 311.759 297.006,312.342 295.742,312.928 294.503 C 313.515 293.263,313.994 292.079,313.994 291.872 C 313.994 291.510,314.773 289.679,315.501 288.328 C 315.692 287.974,315.848 287.385,315.848 287.020 C 315.848 286.655,316.077 286.027,316.358 285.625 C 316.638 285.222,316.986 284.185,317.131 283.320 C 317.277 282.454,317.548 281.652,317.734 281.537 C 317.920 281.422,318.073 280.879,318.075 280.330 C 318.076 279.782,318.299 278.907,318.570 278.388 C 318.841 277.868,319.174 276.634,319.310 275.645 C 319.445 274.656,319.700 273.663,319.876 273.439 C 320.052 273.214,320.291 272.060,320.408 270.873 C 320.524 269.687,320.774 268.519,320.963 268.278 C 321.152 268.038,321.412 266.539,321.540 264.949 C 321.668 263.359,321.975 261.691,322.223 261.242 C 322.985 259.859,322.807 230.674,322.019 227.818 C 321.683 226.603,321.409 224.843,321.409 223.907 C 321.409 222.971,321.232 222.029,321.017 221.814 C 320.801 221.598,320.528 220.439,320.410 219.237 C 320.293 218.036,320.059 216.878,319.892 216.664 C 319.725 216.450,319.474 215.532,319.335 214.625 C 319.197 213.717,318.958 212.808,318.806 212.604 C 318.653 212.400,318.411 211.650,318.266 210.936 C 317.946 209.352,317.007 206.343,316.341 204.763 C 316.070 204.121,315.848 203.338,315.848 203.024 C 315.848 202.710,315.681 202.350,315.477 202.224 C 315.273 202.098,315.107 201.738,315.107 201.424 C 315.107 200.901,314.841 200.196,313.450 197.034 C 312.389 194.620,307.934 185.531,307.727 185.357 C 307.606 185.255,307.175 184.504,306.769 183.689 C 306.363 182.873,305.821 182.072,305.564 181.909 C 305.307 181.746,305.097 181.437,305.097 181.222 C 305.097 181.006,304.597 180.089,303.985 179.183 C 303.373 178.276,302.873 177.453,302.873 177.352 C 302.873 177.252,302.703 176.968,302.495 176.722 C 302.287 176.476,300.845 174.523,299.291 172.382 C 297.736 170.241,295.613 167.492,294.571 166.273 C 293.530 165.055,292.345 163.661,291.937 163.176 C 289.659 160.466,282.172 153.277,278.951 150.708 C 277.938 149.899,277.025 149.139,276.923 149.018 C 276.532 148.556,270.652 144.208,270.418 144.208 C 270.283 144.208,269.540 143.707,268.767 143.095 C 267.995 142.484,267.281 141.983,267.181 141.983 C 267.080 141.983,266.020 141.333,264.824 140.539 C 262.893 139.256,261.278 138.337,256.011 135.528 C 254.350 134.641,253.462 133.467,254.241 133.185 C 254.509 133.088,254.887 132.651,255.080 132.213 C 255.274 131.776,255.757 130.918,256.154 130.306 C 257.029 128.957,259.140 124.621,260.035 122.335 C 260.394 121.418,260.817 120.411,260.975 120.097 C 261.132 119.783,261.385 118.782,261.535 117.873 C 261.686 116.963,261.915 116.052,262.045 115.848 C 263.909 112.911,263.938 93.835,262.085 89.527 C 261.909 89.120,261.658 88.078,261.527 87.212 C 261.396 86.347,261.136 85.545,260.950 85.430 C 260.764 85.315,260.612 84.963,260.612 84.650 C 260.612 84.019,259.991 82.505,258.357 79.147 C 257.762 77.924,257.275 76.809,257.275 76.668 C 257.275 76.528,256.525 75.317,255.607 73.977 C 254.690 72.637,253.939 71.466,253.939 71.375 C 253.939 71.284,253.518 70.589,253.003 69.831 C 252.364 68.890,252.188 68.331,252.447 68.072 C 252.656 67.863,252.827 67.412,252.827 67.070 C 252.827 66.728,253.077 66.241,253.383 65.987 C 253.689 65.733,253.939 65.049,253.939 64.466 C 253.939 63.884,254.203 62.748,254.525 61.942 C 255.465 59.592,254.917 54.162,253.379 50.602 C 253.115 49.991,252.792 49.240,252.663 48.934 C 251.551 46.313,248.511 43.340,245.266 41.703 C 243.288 40.705,235.820 40.657,234.738 41.636 C 234.358 41.980,233.810 42.261,233.520 42.262 C 233.012 42.262,227.817 47.402,227.062 48.652 C 226.664 49.312,224.388 48.936,222.545 47.904 C 222.100 47.655,221.317 47.451,220.806 47.451 C 220.295 47.451,219.783 47.299,219.668 47.113 C 219.553 46.927,218.750 46.667,217.885 46.536 C 217.020 46.405,215.978 46.151,215.570 45.972 C 210.817 43.887,186.533 43.927,183.318 46.025 C 183.114 46.158,182.153 46.386,181.182 46.531 C 180.211 46.677,179.325 46.943,179.214 47.123 C 179.102 47.304,178.645 47.452,178.199 47.454 C 177.752 47.455,176.893 47.713,176.291 48.027 C 173.982 49.231,172.113 49.173,171.373 47.873 C 171.010 47.236,170.589 46.714,170.436 46.712 C 170.283 46.711,170.158 46.497,170.158 46.236 C 170.158 45.734,169.746 45.338,167.376 43.559 C 164.258 41.218,161.266 40.553,156.007 41.030 M183.614 80.316 C 187.800 82.480,188.448 88.909,184.821 92.294 C 183.530 93.499,180.282 93.603,179.040 92.480 C 174.095 88.008,178.066 77.450,183.614 80.316 M219.233 80.468 C 223.851 83.192,222.966 92.392,218.005 93.230 C 211.728 94.291,209.367 83.416,215.211 80.358 C 216.746 79.555,217.731 79.582,219.233 80.468 M202.780 101.761 C 203.034 102.067,203.489 102.317,203.792 102.317 C 204.094 102.317,205.033 102.850,205.878 103.501 C 211.564 107.885,211.151 111.185,204.869 111.585 L 201.952 111.770 201.959 118.005 C 201.963 121.434,202.040 124.313,202.129 124.403 C 202.423 124.696,209.603 123.817,209.978 123.442 C 210.179 123.241,210.743 123.077,211.232 123.077 C 212.071 123.077,214.152 122.318,215.385 121.562 C 215.690 121.375,216.274 121.071,216.682 120.888 C 218.752 119.956,221.316 116.468,221.316 114.584 C 221.316 113.040,223.574 112.487,224.304 113.851 C 225.443 115.979,223.189 120.845,220.091 122.948 C 219.236 123.528,218.480 124.129,218.412 124.282 C 218.344 124.435,218.119 124.560,217.912 124.560 C 217.705 124.560,216.927 124.824,216.182 125.147 C 215.438 125.470,214.281 125.970,213.611 126.259 C 212.942 126.548,211.857 126.790,211.202 126.797 C 210.546 126.804,209.592 127.049,209.082 127.340 C 207.702 128.129,191.937 128.129,190.048 127.340 C 189.316 127.034,188.308 126.784,187.808 126.784 C 186.880 126.784,186.581 126.663,182.391 124.586 C 177.323 122.075,174.066 117.251,175.302 114.087 C 176.001 112.296,178.035 112.772,178.482 114.832 C 179.192 118.103,181.190 120.178,185.682 122.308 C 186.574 122.731,187.545 123.077,187.838 123.077 C 188.131 123.077,188.714 123.260,189.133 123.485 C 189.552 123.709,191.515 124.033,193.494 124.205 C 195.474 124.377,197.330 124.569,197.620 124.631 C 198.056 124.726,198.164 123.620,198.248 118.165 L 198.349 111.585 195.326 111.585 C 189.667 111.585,188.368 109.297,191.743 105.277 C 192.560 104.304,195.266 102.317,195.790 102.305 C 196.067 102.299,196.617 102.048,197.012 101.749 C 198.005 100.998,202.155 101.007,202.780 101.761 M153.218 211.289 C 151.621 212.265,151.552 212.824,151.690 223.624 C 151.795 231.827,151.876 232.852,152.469 233.444 C 153.089 234.063,154.475 234.106,174.156 234.106 L 195.181 234.106 195.181 222.428 L 195.181 210.751 174.791 210.658 C 155.128 210.568,154.360 210.590,153.218 211.289 M203.319 211.033 C 203.221 211.290,203.184 216.586,203.238 222.803 L 203.336 234.106 223.985 234.106 C 240.420 234.106,244.733 234.007,245.116 233.624 C 245.618 233.123,246.058 214.307,245.610 212.522 C 245.126 210.592,244.819 210.565,223.362 210.565 C 207.726 210.565,203.460 210.665,203.319 211.033 " stroke="none" fill="#f17733" fill-rule="evenodd"></path><path id="path1" d="M182.576 191.609 C 181.248 191.857,180.579 192.130,178.684 193.200 C 178.378 193.373,177.778 193.667,177.351 193.853 C 174.218 195.220,168.688 205.264,170.992 205.403 C 175.247 205.662,177.943 205.002,177.943 203.701 C 177.943 202.882,180.207 200.386,181.960 199.273 C 186.156 196.609,192.343 199.004,194.480 204.119 L 195.005 205.375 198.805 205.375 L 202.605 205.375 203.474 203.545 C 205.612 199.042,210.729 196.922,214.829 198.840 C 216.360 199.557,219.462 202.574,219.462 203.347 C 219.462 204.864,221.064 205.565,224.096 205.375 L 227.062 205.190 227.012 204.024 C 226.931 202.153,224.643 197.968,222.566 195.890 C 216.588 189.913,206.681 189.798,200.674 195.636 C 198.891 197.369,198.179 197.579,197.622 196.536 C 197.199 195.747,193.368 192.771,192.774 192.771 C 192.554 192.771,191.993 192.521,191.527 192.216 C 190.541 191.570,184.851 191.184,182.576 191.609 M176.830 241.705 L 159.222 241.891 159.113 265.246 C 158.996 290.533,159.029 291.271,160.325 292.778 L 161.196 293.791 178.188 293.791 L 195.181 293.791 195.276 267.789 C 195.351 247.165,195.275 241.759,194.905 241.653 C 194.649 241.580,186.515 241.603,176.830 241.705 M203.483 241.729 C 203.284 241.852,203.185 252.568,203.241 267.864 L 203.336 293.791 219.711 293.791 L 236.085 293.791 237.042 292.892 L 237.998 291.993 237.998 266.856 L 237.998 241.720 220.910 241.620 C 211.511 241.565,203.669 241.614,203.483 241.729 " stroke="none" fill="#086e3f" fill-rule="evenodd"></path><path id="path2" d="M0.000 200.000 L 0.000 400.000 200.000 400.000 L 400.000 400.000 400.000 200.000 L 400.000 0.000 200.000 0.000 L 0.000 0.000 0.000 200.000 M165.260 41.088 C 167.808 42.422,170.877 45.246,171.874 47.173 C 172.425 48.239,173.731 48.549,174.487 47.793 C 174.706 47.573,175.449 47.255,176.136 47.084 C 176.824 46.914,177.887 46.608,178.499 46.403 C 181.012 45.562,182.446 45.178,184.314 44.843 C 185.397 44.649,187.034 44.337,187.952 44.150 C 193.816 42.953,204.941 42.943,211.121 44.128 C 217.316 45.316,220.778 46.257,224.202 47.685 C 226.063 48.461,226.643 48.313,227.424 46.863 C 231.019 40.189,241.311 37.851,247.957 42.200 C 251.049 44.224,252.909 46.851,255.086 52.271 C 256.405 55.554,255.676 63.554,253.704 67.423 C 253.193 68.427,253.344 69.046,254.481 70.621 C 265.418 85.771,267.750 106.742,260.417 124.004 C 259.345 126.527,258.489 128.203,256.962 130.772 C 255.144 133.830,255.158 134.171,257.150 135.180 C 271.237 142.319,287.612 155.681,296.378 167.192 C 297.387 168.517,298.404 169.768,298.638 169.972 C 298.872 170.176,299.628 171.162,300.319 172.163 C 301.010 173.164,302.196 174.884,302.955 175.984 C 305.799 180.110,311.027 189.313,312.281 192.400 C 312.405 192.706,312.650 193.207,312.826 193.513 C 313.001 193.818,313.434 194.736,313.787 195.551 C 314.140 196.367,314.665 197.507,314.953 198.084 C 315.242 198.661,315.483 199.412,315.489 199.752 C 315.496 200.092,315.746 200.695,316.045 201.090 C 316.345 201.486,316.589 202.098,316.589 202.450 C 316.589 202.803,316.827 203.563,317.117 204.140 C 317.407 204.718,317.928 206.191,318.275 207.414 C 318.622 208.638,319.023 209.889,319.166 210.195 C 319.309 210.500,319.801 212.419,320.259 214.458 C 320.718 216.497,321.245 218.669,321.430 219.286 C 322.033 221.294,323.197 229.140,323.318 232.009 C 323.357 232.957,323.589 233.698,323.880 233.810 C 324.534 234.061,324.617 256.020,323.965 256.238 C 323.737 256.314,323.407 257.936,323.223 259.883 C 322.801 264.357,321.246 272.839,320.303 275.811 C 320.142 276.321,319.720 277.822,319.366 279.147 C 318.615 281.960,317.682 284.814,316.579 287.674 C 316.146 288.795,315.658 290.141,315.495 290.665 C 315.331 291.189,315.034 291.939,314.836 292.333 C 314.637 292.727,314.218 293.633,313.904 294.347 C 304.201 316.417,289.269 334.286,268.942 348.152 C 267.305 349.269,265.720 350.300,265.420 350.443 C 265.120 350.586,264.374 351.026,263.763 351.420 C 260.591 353.463,252.427 357.560,249.932 358.360 C 246.931 359.322,237.530 359.332,234.847 358.376 C 228.201 356.007,227.054 354.774,230.028 353.194 C 230.639 352.869,231.974 352.164,232.994 351.627 C 234.013 351.090,235.681 350.154,236.701 349.548 C 237.720 348.942,238.911 348.266,239.347 348.047 C 240.700 347.366,241.047 346.081,240.176 344.974 C 239.249 343.796,238.382 343.774,236.601 344.883 C 235.840 345.357,234.968 345.860,234.662 346.002 C 234.356 346.143,233.105 346.811,231.881 347.486 C 230.658 348.160,228.780 349.177,227.708 349.744 C 226.636 350.312,225.666 350.925,225.554 351.106 C 224.636 352.591,221.676 349.767,219.355 345.193 C 217.937 342.398,218.023 341.728,219.926 340.743 C 220.792 340.294,223.003 339.098,224.838 338.085 C 226.673 337.072,228.424 336.128,228.730 335.987 C 231.392 334.762,232.137 332.776,230.369 331.618 C 229.371 330.964,227.664 331.581,223.726 334.018 C 223.114 334.396,221.863 335.076,220.945 335.529 C 220.028 335.981,218.991 336.596,218.642 336.895 C 215.686 339.428,216.333 328.284,219.503 322.071 C 222.171 316.841,226.136 313.188,232.811 309.808 C 235.938 308.225,236.076 308.145,239.665 305.839 C 244.132 302.968,247.529 300.133,252.018 295.528 C 254.987 292.483,260.612 285.557,260.612 284.947 C 260.612 284.836,261.095 284.028,261.686 283.151 C 266.227 276.411,270.532 264.915,271.791 256.163 C 273.325 245.503,272.554 234.595,269.524 224.096 C 264.461 206.550,249.920 188.888,234.106 181.076 C 233.494 180.774,232.743 180.372,232.437 180.184 C 231.333 179.504,226.864 177.572,226.394 177.572 C 226.129 177.572,225.754 177.429,225.561 177.255 C 225.002 176.751,221.219 175.580,216.311 174.390 C 205.933 171.875,185.215 172.242,180.723 175.021 C 180.519 175.147,179.685 175.370,178.869 175.517 C 178.054 175.664,177.220 175.913,177.016 176.071 C 176.812 176.229,176.150 176.476,175.545 176.621 C 172.830 177.272,162.868 182.248,160.096 184.337 C 159.353 184.898,158.633 185.357,158.498 185.357 C 157.034 185.357,146.067 195.669,142.441 200.454 C 136.807 207.891,131.623 217.802,130.272 223.726 C 130.132 224.337,129.917 225.005,129.793 225.209 C 127.679 228.686,126.356 248.216,127.722 255.792 C 128.742 261.452,130.154 267.109,130.889 268.484 C 131.078 268.838,131.238 269.339,131.245 269.596 C 131.252 269.854,131.580 270.732,131.974 271.548 C 132.368 272.363,132.696 273.176,132.703 273.353 C 132.720 273.799,135.916 280.195,136.802 281.557 C 137.200 282.169,137.653 282.919,137.808 283.225 C 139.160 285.886,145.501 294.013,148.224 296.574 C 151.521 299.675,158.654 305.468,159.175 305.468 C 159.282 305.468,160.087 305.951,160.964 306.541 C 161.841 307.131,163.225 307.976,164.041 308.419 C 168.193 310.675,169.572 311.584,172.498 313.994 C 173.639 314.934,176.674 319.267,177.561 321.223 C 178.023 322.243,178.562 323.387,178.757 323.767 C 179.101 324.435,179.450 326.041,180.179 330.306 C 180.495 332.159,180.391 334.645,179.925 336.330 C 179.678 337.224,179.006 337.145,176.936 335.980 C 167.440 330.635,167.502 330.659,166.172 331.768 C 164.573 333.102,165.361 334.423,168.840 336.242 C 169.463 336.567,171.125 337.474,172.534 338.257 C 173.944 339.039,175.445 339.869,175.871 340.101 C 177.490 340.981,178.313 341.619,178.313 341.994 C 178.313 343.127,174.899 348.431,172.966 350.300 L 171.650 351.573 170.070 350.732 C 169.200 350.270,167.488 349.325,166.265 348.633 C 165.042 347.941,163.791 347.256,163.485 347.112 C 163.179 346.968,161.883 346.214,160.605 345.436 C 158.012 343.858,156.314 343.616,155.713 344.739 C 154.769 346.503,155.318 347.319,158.665 349.125 C 159.787 349.730,161.288 350.572,162.002 350.996 C 162.715 351.419,164.175 352.197,165.246 352.724 C 167.794 353.979,167.685 354.538,164.597 356.035 C 157.265 359.588,148.460 358.587,138.832 353.106 C 137.609 352.409,136.274 351.658,135.867 351.437 C 133.666 350.241,127.229 345.929,126.046 344.858 C 125.539 344.398,125.009 344.022,124.868 344.022 C 124.728 344.022,124.392 343.811,124.123 343.554 C 123.853 343.296,122.882 342.511,121.965 341.810 C 116.429 337.578,109.026 330.233,102.866 322.861 C 99.829 319.227,94.840 311.990,92.280 307.507 C 91.582 306.284,90.817 304.949,90.581 304.541 C 89.973 303.490,86.941 297.378,86.259 295.829 C 84.799 292.511,84.204 291.059,83.601 289.342 C 83.243 288.323,82.720 286.963,82.439 286.320 C 82.158 285.678,81.928 284.967,81.928 284.740 C 81.928 284.513,81.782 284.038,81.603 283.684 C 81.007 282.502,79.206 275.923,78.432 272.104 C 77.079 265.422,76.769 263.529,76.394 259.668 C 75.888 254.459,75.876 236.118,76.374 230.769 C 77.066 223.349,78.639 216.131,81.584 206.858 C 83.289 201.492,83.724 200.333,85.797 195.644 C 86.089 194.981,86.422 194.189,86.536 193.883 C 86.649 193.577,86.891 193.077,87.073 192.771 C 87.255 192.465,88.021 190.964,88.776 189.435 C 90.073 186.810,90.595 185.847,92.722 182.157 C 95.248 177.774,101.600 168.669,103.563 166.615 C 103.795 166.372,104.892 165.109,106.000 163.809 C 110.394 158.653,118.227 151.297,124.015 146.892 C 126.309 145.146,131.249 141.613,131.397 141.613 C 131.482 141.613,132.559 140.943,133.792 140.124 C 135.024 139.306,136.412 138.469,136.876 138.265 C 137.340 138.061,138.221 137.569,138.832 137.172 C 139.444 136.774,140.808 136.019,141.865 135.494 C 144.291 134.288,144.340 134.095,142.791 131.814 C 142.090 130.781,141.285 129.435,141.002 128.823 C 140.720 128.211,140.343 127.461,140.165 127.155 C 139.987 126.849,139.547 125.931,139.187 125.116 C 138.828 124.300,138.309 123.190,138.035 122.649 C 137.760 122.108,137.535 121.325,137.535 120.910 C 137.535 120.495,137.392 120.067,137.217 119.958 C 136.886 119.754,135.876 115.913,135.217 112.349 C 134.645 109.259,134.443 96.935,134.925 94.532 C 137.043 83.977,138.874 79.361,144.084 71.443 L 145.983 68.559 145.227 66.995 C 140.408 57.028,144.885 44.091,154.402 40.479 C 156.398 39.721,163.400 40.114,165.260 41.088 M180.281 81.173 C 177.186 82.485,176.776 88.810,179.614 91.474 C 182.984 94.637,186.786 90.772,185.929 85.055 C 185.475 82.028,182.724 80.137,180.281 81.173 M215.570 81.168 C 212.168 82.569,212.050 90.094,215.399 92.072 C 218.328 93.802,221.316 91.131,221.316 86.783 C 221.316 82.485,218.664 79.894,215.570 81.168 M197.961 102.284 C 197.655 102.447,196.739 102.895,195.926 103.282 C 192.859 104.740,189.947 108.676,191.169 109.714 C 191.710 110.174,194.381 110.866,196.664 111.137 L 198.888 111.402 198.989 118.114 C 199.111 126.276,199.285 125.969,194.890 125.366 C 190.107 124.709,187.860 124.246,187.445 123.831 C 187.235 123.620,186.761 123.448,186.393 123.448 C 183.924 123.448,177.943 118.112,177.943 115.909 C 177.943 114.919,177.250 113.809,176.632 113.809 C 175.788 113.809,175.937 116.831,176.869 118.620 C 180.117 124.850,195.920 129.394,205.931 126.977 C 207.155 126.681,208.740 126.428,209.453 126.413 C 210.167 126.399,211.168 126.149,211.677 125.857 C 212.187 125.566,212.935 125.322,213.340 125.314 C 215.559 125.275,221.001 121.553,222.643 118.952 C 223.722 117.243,223.944 113.809,222.975 113.809 C 222.356 113.809,221.687 115.231,221.687 116.545 C 221.687 117.364,218.920 120.557,217.409 121.483 C 215.132 122.878,211.627 124.186,209.082 124.592 C 208.165 124.738,206.337 125.050,205.019 125.285 C 200.715 126.054,200.927 126.418,200.927 118.251 L 200.927 111.214 202.332 111.214 C 203.908 111.214,207.982 110.237,208.480 109.740 C 210.972 107.253,201.395 100.465,197.961 102.284 M189.196 191.122 C 192.712 192.010,197.961 195.029,197.961 196.164 C 197.961 197.068,199.082 196.725,200.481 195.395 C 207.887 188.350,218.466 189.393,224.615 197.776 C 226.367 200.163,227.334 202.387,227.389 204.154 L 227.433 205.561 223.804 205.667 L 220.174 205.773 219.446 204.127 C 216.166 196.712,206.993 196.732,203.667 204.161 L 202.966 205.727 198.784 205.736 C 195.119 205.745,194.577 205.666,194.401 205.097 C 194.291 204.741,194.045 204.198,193.856 203.892 C 193.666 203.587,193.363 203.003,193.182 202.595 C 192.344 200.704,188.254 198.332,185.830 198.332 C 183.620 198.332,179.999 200.771,178.852 203.032 C 177.490 205.719,177.438 205.746,173.622 205.746 L 170.158 205.746 170.158 204.412 C 170.158 203.195,170.805 201.230,171.672 199.815 C 171.860 199.509,172.170 198.897,172.362 198.455 C 174.540 193.441,183.288 189.630,189.196 191.122 M195.279 210.133 C 195.644 210.365,195.726 213.118,195.649 222.639 L 195.551 234.847 174.529 234.943 L 153.506 235.039 152.193 233.726 L 150.880 232.413 150.880 222.768 C 150.880 212.078,150.983 211.526,153.178 210.444 C 154.516 209.785,194.267 209.491,195.279 210.133 M244.495 210.571 C 246.799 211.995,246.956 212.838,246.826 223.090 C 246.700 233.067,246.582 233.639,244.463 234.605 C 242.587 235.459,203.260 235.186,202.793 234.315 C 202.104 233.027,202.286 211.113,202.992 210.406 C 204.012 209.386,242.827 209.540,244.495 210.571 M195.150 241.189 C 195.677 241.391,195.737 244.071,195.737 267.688 L 195.737 293.962 194.903 294.170 C 194.444 294.285,186.728 294.330,177.757 294.270 C 159.580 294.149,160.048 294.217,159.078 291.540 C 158.293 289.375,158.517 241.828,159.314 241.364 C 160.016 240.955,194.107 240.788,195.150 241.189 M238.167 241.556 C 238.700 242.090,238.749 244.648,238.657 267.127 L 238.554 292.106 237.527 293.134 L 236.499 294.161 220.055 294.272 C 205.300 294.371,203.549 294.320,203.010 293.782 C 202.107 292.879,202.090 242.449,202.992 241.546 C 203.884 240.655,237.275 240.664,238.167 241.556 " stroke="none" fill="#fbfbfb" fill-rule="evenodd"></path><path id="path3" d="M157.183 40.391 C 156.877 40.598,156.173 40.770,155.618 40.773 C 147.343 40.819,140.967 57.022,145.515 66.449 C 146.677 68.859,146.692 68.723,145.017 70.958 C 144.239 71.996,143.486 73.095,143.345 73.401 C 143.203 73.707,142.766 74.458,142.372 75.070 C 141.333 76.687,139.018 81.506,139.018 82.053 C 139.018 82.310,138.877 82.679,138.706 82.873 C 137.937 83.741,136.038 90.903,135.342 95.558 C 134.330 102.333,135.385 113.889,137.531 119.525 C 139.044 123.501,139.881 125.521,140.607 126.955 C 141.676 129.066,142.687 130.840,143.622 132.243 C 144.901 134.164,144.754 134.610,142.477 135.709 C 139.739 137.030,135.623 139.454,135.807 139.638 C 135.897 139.727,137.031 139.162,138.328 138.381 C 139.625 137.601,141.645 136.502,142.817 135.939 C 145.313 134.742,145.446 134.232,143.875 131.900 C 142.384 129.686,139.388 123.793,139.388 123.072 C 139.388 122.745,139.143 122.153,138.844 121.758 C 138.545 121.362,138.293 120.704,138.286 120.297 C 138.278 119.889,138.050 119.130,137.778 118.610 C 137.507 118.090,137.174 116.856,137.039 115.867 C 136.903 114.878,136.584 113.818,136.329 113.511 C 135.546 112.568,135.733 92.907,136.542 91.115 C 136.884 90.357,137.164 89.333,137.164 88.840 C 137.164 88.347,137.413 87.466,137.718 86.882 C 138.022 86.298,138.273 85.455,138.274 85.008 C 138.275 84.561,138.430 84.101,138.618 83.984 C 138.807 83.868,139.067 83.289,139.197 82.697 C 139.545 81.111,142.504 75.501,144.798 72.078 C 147.003 68.788,147.085 68.465,146.184 66.666 C 145.843 65.987,145.435 65.155,145.275 64.817 C 142.656 59.260,145.362 47.859,150.227 43.961 C 150.892 43.428,151.638 42.827,151.884 42.626 C 152.131 42.426,152.534 42.261,152.782 42.261 C 153.029 42.261,153.539 41.984,153.913 41.644 C 154.466 41.145,155.423 41.025,158.947 41.012 C 163.657 40.996,164.167 41.150,167.376 43.559 C 169.746 45.338,170.158 45.734,170.158 46.236 C 170.158 46.497,170.283 46.711,170.436 46.712 C 170.589 46.714,170.998 47.214,171.345 47.824 C 171.862 48.733,172.199 48.923,173.199 48.875 L 174.421 48.816 173.238 48.668 C 172.309 48.551,171.858 48.181,171.127 46.935 C 169.424 44.029,165.904 41.460,162.558 40.681 C 160.130 40.116,157.776 39.989,157.183 40.391 M237.071 40.478 C 233.505 41.387,230.046 43.845,227.824 47.052 C 227.065 48.146,226.508 48.570,225.807 48.587 L 224.838 48.610 225.765 48.982 C 226.514 49.282,226.762 49.227,227.062 48.696 C 227.746 47.484,232.987 42.262,233.520 42.262 C 233.810 42.261,234.358 41.980,234.738 41.636 C 235.820 40.657,243.288 40.705,245.266 41.703 C 248.511 43.340,251.551 46.313,252.663 48.934 C 252.792 49.240,253.115 49.991,253.379 50.602 C 254.227 52.565,254.765 54.976,255.034 58.017 L 255.296 60.982 255.359 58.386 C 255.624 47.419,246.170 38.161,237.071 40.478 M192.586 44.078 C 187.179 44.489,176.202 46.976,178.053 47.371 C 178.420 47.449,178.920 47.351,179.165 47.153 C 179.410 46.955,180.361 46.672,181.279 46.524 C 182.196 46.375,183.114 46.148,183.318 46.018 C 186.616 43.925,210.825 43.890,215.570 45.972 C 215.978 46.151,217.020 46.405,217.885 46.536 C 218.750 46.667,219.553 46.927,219.668 47.113 C 219.783 47.299,220.242 47.450,220.689 47.449 C 222.996 47.443,218.559 46.139,211.307 44.692 C 208.106 44.053,197.485 43.705,192.586 44.078 M175.184 48.019 C 174.249 48.726,174.962 48.720,176.325 48.010 C 177.174 47.567,177.238 47.458,176.645 47.465 C 176.237 47.471,175.580 47.720,175.184 48.019 M222.635 47.996 C 223.031 48.295,223.689 48.539,224.096 48.539 C 224.752 48.537,224.730 48.476,223.911 48.007 C 222.642 47.282,221.680 47.273,222.635 47.996 M254.375 62.252 C 254.135 62.940,253.939 63.958,253.939 64.514 C 253.939 65.070,253.689 65.733,253.383 65.987 C 253.077 66.241,252.827 66.728,252.827 67.070 C 252.827 67.412,252.656 67.863,252.447 68.072 C 252.188 68.331,252.364 68.890,253.003 69.831 C 253.518 70.589,253.939 71.274,253.939 71.353 C 253.939 71.609,256.924 75.996,257.098 75.996 C 257.308 75.996,254.461 71.312,253.518 70.108 C 252.674 69.029,252.654 68.360,253.421 66.914 C 254.125 65.586,255.127 61.951,254.942 61.396 C 254.869 61.179,254.614 61.565,254.375 62.252 M257.275 76.645 C 257.275 76.798,257.762 77.924,258.357 79.147 C 259.991 82.505,260.612 84.019,260.612 84.650 C 260.612 84.963,260.764 85.315,260.950 85.430 C 261.136 85.545,261.396 86.347,261.527 87.212 C 261.658 88.078,261.909 89.120,262.085 89.527 C 263.938 93.835,263.909 112.911,262.045 115.848 C 261.915 116.052,261.686 116.963,261.535 117.873 C 261.385 118.782,261.132 119.783,260.975 120.097 C 260.817 120.411,260.394 121.418,260.035 122.335 C 259.140 124.621,257.029 128.957,256.154 130.306 C 255.757 130.918,255.274 131.776,255.080 132.213 C 254.887 132.651,254.509 133.088,254.241 133.185 C 253.462 133.467,254.350 134.641,256.011 135.528 C 261.278 138.337,262.893 139.256,264.824 140.539 C 266.020 141.333,267.080 141.983,267.181 141.983 C 267.281 141.983,267.995 142.484,268.767 143.095 C 269.540 143.707,270.283 144.208,270.418 144.208 C 270.652 144.208,276.532 148.556,276.923 149.018 C 277.025 149.139,277.938 149.899,278.951 150.708 C 282.172 153.277,289.659 160.466,291.937 163.176 C 292.345 163.661,293.530 165.055,294.571 166.273 C 295.613 167.492,297.736 170.241,299.291 172.382 C 300.845 174.523,302.287 176.476,302.495 176.722 C 302.703 176.968,302.873 177.252,302.873 177.352 C 302.873 177.453,303.373 178.276,303.985 179.183 C 304.597 180.089,305.097 181.006,305.097 181.222 C 305.097 181.437,305.307 181.746,305.564 181.909 C 305.821 182.072,306.363 182.873,306.769 183.689 C 307.175 184.504,307.606 185.255,307.727 185.357 C 307.902 185.504,310.748 191.271,313.353 196.756 C 314.026 198.173,314.064 197.397,313.396 195.875 C 312.360 193.516,308.377 185.640,307.514 184.245 C 307.073 183.531,306.592 182.697,306.446 182.391 C 305.383 180.164,299.772 172.055,296.319 167.754 C 287.719 157.044,271.639 143.225,262.280 138.501 C 261.668 138.192,260.334 137.434,259.314 136.815 C 258.295 136.197,257.210 135.593,256.905 135.474 C 254.510 134.540,254.361 133.971,255.884 131.586 C 265.649 116.295,266.697 94.865,258.490 78.313 C 257.562 76.442,257.275 76.048,257.275 76.645 M179.981 80.408 C 178.089 81.515,176.850 83.685,176.889 85.820 L 176.923 87.674 177.199 85.794 C 177.803 81.677,180.412 79.440,183.233 80.619 C 187.676 82.475,188.066 89.535,183.884 92.417 C 183.279 92.835,183.161 93.049,183.537 93.049 C 184.244 93.049,185.817 91.400,186.612 89.824 C 189.110 84.871,184.220 77.928,179.981 80.408 M215.211 80.358 C 213.394 81.308,211.677 84.323,211.677 86.562 C 211.677 88.695,214.181 93.049,215.408 93.049 C 215.593 93.049,215.157 92.507,214.439 91.844 C 211.042 88.709,211.912 81.952,215.899 80.511 C 221.219 78.587,224.193 88.229,219.504 92.202 C 218.972 92.653,218.733 93.028,218.974 93.036 C 219.215 93.043,220.028 92.298,220.781 91.380 C 224.814 86.457,220.368 77.659,215.211 80.358 M176.851 88.341 C 176.807 89.776,179.031 93.049,180.052 93.049 C 180.325 93.049,180.021 92.577,179.375 92.000 C 178.729 91.423,177.902 90.214,177.536 89.312 C 177.171 88.411,176.863 87.974,176.851 88.341 M197.012 101.749 C 196.617 102.048,196.067 102.299,195.790 102.305 C 193.980 102.348,189.805 107.238,189.805 109.316 C 189.805 110.469,191.988 111.594,194.112 111.534 C 195.108 111.507,195.505 111.420,194.995 111.342 C 194.486 111.263,193.517 111.110,192.843 111.001 C 188.488 110.295,190.400 105.490,196.177 102.624 C 198.469 101.487,200.702 101.317,202.595 102.135 C 203.256 102.421,203.281 102.388,202.828 101.830 C 202.160 101.009,198.066 100.952,197.012 101.749 M204.752 103.210 C 207.476 104.884,209.453 107.409,209.453 109.212 C 209.453 109.977,207.849 110.864,205.862 111.198 L 204.078 111.498 205.702 111.541 C 211.015 111.684,211.106 107.532,205.878 103.501 C 205.033 102.850,204.116 102.322,203.839 102.329 C 203.563 102.335,203.973 102.732,204.752 103.210 M198.327 118.072 C 198.173 123.752,198.064 124.726,197.590 124.619 C 197.285 124.550,195.783 124.428,194.254 124.347 L 191.474 124.202 194.744 124.799 C 198.945 125.567,198.740 125.926,198.614 118.045 L 198.508 111.399 198.327 118.072 M201.297 118.059 C 201.297 124.923,201.532 125.757,203.272 125.089 C 203.573 124.974,204.627 124.730,205.616 124.547 C 207.210 124.252,207.109 124.234,204.727 124.390 C 202.729 124.520,202.034 124.445,202.018 124.099 C 202.007 123.843,201.990 120.922,201.982 117.609 C 201.973 114.288,201.816 111.585,201.632 111.585 C 201.446 111.585,201.297 114.459,201.297 118.059 M175.314 114.083 C 175.089 114.675,175.048 115.642,175.216 116.400 C 175.497 117.671,175.509 117.654,175.704 115.666 C 175.923 113.437,176.863 112.709,177.825 114.025 C 178.237 114.588,178.313 114.600,178.313 114.105 C 178.313 112.726,175.836 112.708,175.314 114.083 M221.702 113.606 C 221.456 113.902,221.333 114.444,221.428 114.811 C 221.565 115.338,221.610 115.305,221.644 114.650 C 221.696 113.636,223.421 113.043,223.966 113.852 C 225.715 116.451,221.886 122.014,216.560 124.610 C 215.404 125.174,214.740 125.643,215.085 125.653 C 215.429 125.664,215.803 125.524,215.915 125.342 C 216.027 125.161,216.578 124.898,217.138 124.757 C 217.699 124.616,218.243 124.389,218.347 124.251 C 218.451 124.114,219.236 123.527,220.091 122.947 C 223.188 120.846,225.443 115.979,224.304 113.851 C 223.818 112.943,222.365 112.806,221.702 113.606 M178.343 115.399 C 178.238 117.779,183.971 123.160,186.499 123.055 C 186.956 123.036,185.299 122.034,182.947 120.907 C 181.420 120.175,179.250 117.401,178.555 115.292 C 178.416 114.869,178.365 114.895,178.343 115.399 M220.566 116.856 C 220.072 118.110,217.376 120.851,216.635 120.852 C 216.405 120.852,216.009 121.103,215.755 121.409 C 214.391 123.053,218.180 120.640,219.723 118.882 C 220.852 117.597,221.554 116.148,221.214 115.808 C 221.121 115.715,220.830 116.186,220.566 116.856 M175.725 118.219 C 175.701 120.021,182.537 125.717,184.651 125.657 C 184.937 125.649,184.192 125.146,182.994 124.540 C 180.009 123.029,178.066 121.417,176.801 119.402 C 176.213 118.467,175.729 117.935,175.725 118.219 M213.160 122.552 C 212.645 122.838,212.481 123.063,212.790 123.058 C 213.095 123.054,213.763 122.812,214.272 122.521 C 214.782 122.229,214.949 122.002,214.643 122.014 C 214.337 122.027,213.670 122.269,213.160 122.552 M188.272 123.648 C 188.958 123.945,189.876 124.182,190.311 124.173 C 190.823 124.162,190.579 123.968,189.620 123.622 C 187.690 122.927,186.657 122.946,188.272 123.648 M209.991 123.416 C 209.797 123.603,209.222 123.830,208.712 123.922 L 207.785 124.088 208.762 124.139 C 209.299 124.166,210.300 123.945,210.986 123.648 C 212.150 123.142,212.170 123.105,211.288 123.091 C 210.768 123.083,210.184 123.230,209.991 123.416 M185.935 126.216 C 186.330 126.516,187.071 126.753,187.581 126.744 C 188.397 126.730,188.353 126.668,187.210 126.228 C 185.477 125.561,185.063 125.557,185.935 126.216 M212.048 126.251 C 210.918 126.679,210.870 126.743,211.677 126.750 C 212.187 126.754,213.021 126.519,213.531 126.228 C 214.674 125.575,213.800 125.588,212.048 126.251 M190.126 127.324 C 190.846 127.654,192.256 127.874,193.462 127.844 L 195.551 127.792 193.698 127.536 C 192.678 127.396,191.177 127.162,190.361 127.016 L 188.879 126.751 190.126 127.324 M208.632 126.987 C 208.521 127.099,207.367 127.328,206.068 127.496 L 203.707 127.802 205.931 127.836 C 207.240 127.856,208.537 127.652,209.082 127.340 C 209.692 126.991,209.809 126.806,209.422 126.797 C 209.099 126.790,208.744 126.875,208.632 126.987 M134.384 140.165 C 134.180 140.368,132.678 141.395,131.047 142.448 C 129.416 143.501,127.915 144.494,127.711 144.653 C 127.507 144.813,125.922 146.037,124.189 147.373 C 112.142 156.662,100.389 169.824,93.591 181.642 C 93.379 182.011,92.980 182.584,92.704 182.917 C 92.428 183.249,92.301 183.620,92.423 183.742 C 92.544 183.863,93.110 183.175,93.680 182.213 C 95.066 179.875,98.321 174.838,98.596 174.606 C 98.717 174.504,99.804 173.086,101.013 171.455 C 106.553 163.974,114.410 155.683,120.671 150.708 C 121.688 149.899,122.604 149.141,122.706 149.022 C 123.358 148.265,132.160 141.983,132.569 141.983 C 132.667 141.983,132.948 141.816,133.195 141.612 C 133.441 141.409,134.059 140.914,134.569 140.513 C 135.079 140.112,135.329 139.786,135.125 139.790 C 134.921 139.793,134.588 139.962,134.384 140.165 M196.200 171.917 C 198.188 171.983,201.441 171.983,203.429 171.917 C 205.417 171.850,203.791 171.796,199.815 171.796 C 195.839 171.796,194.212 171.850,196.200 171.917 M188.508 172.397 C 187.692 172.560,186.108 172.879,184.986 173.107 C 183.865 173.334,182.127 173.675,181.125 173.865 C 180.122 174.055,179.130 174.383,178.919 174.594 C 178.708 174.804,178.100 174.977,177.569 174.977 C 177.037 174.977,176.278 175.222,175.882 175.521 C 175.486 175.820,174.854 176.071,174.478 176.077 C 174.102 176.084,173.351 176.310,172.810 176.581 C 172.269 176.851,171.270 177.352,170.591 177.693 C 169.912 178.034,169.140 178.313,168.875 178.313 C 168.611 178.313,168.187 178.563,167.933 178.869 C 167.679 179.175,167.179 179.425,166.821 179.425 C 166.463 179.425,165.963 179.676,165.709 179.981 C 165.079 180.740,165.396 180.682,167.265 179.696 C 168.879 178.844,173.707 176.775,176.089 175.915 C 179.400 174.719,184.190 173.546,189.620 172.602 C 191.251 172.318,192.002 172.089,191.288 172.093 C 190.575 172.097,189.323 172.234,188.508 172.397 M208.526 172.406 C 209.342 172.602,211.213 172.917,212.685 173.108 C 214.157 173.299,215.689 173.631,216.090 173.845 C 216.491 174.060,217.161 174.235,217.579 174.235 C 218.803 174.235,227.376 177.207,230.190 178.607 C 232.136 179.575,232.306 179.605,231.696 178.869 C 231.442 178.563,231.018 178.313,230.754 178.313 C 230.490 178.313,229.718 178.035,229.038 177.694 C 228.359 177.354,227.471 176.910,227.065 176.708 C 226.658 176.506,225.824 176.216,225.211 176.062 C 223.932 175.742,222.024 175.076,220.333 174.360 C 219.691 174.087,218.598 173.865,217.905 173.865 C 217.212 173.865,216.486 173.706,216.291 173.511 C 215.944 173.164,212.003 172.480,208.712 172.196 L 207.044 172.052 208.526 172.406 M233.004 179.915 C 233.406 180.184,234.486 180.785,235.403 181.251 C 237.274 182.199,241.982 185.245,242.784 186.026 C 243.071 186.305,243.989 186.964,244.823 187.490 C 247.969 189.472,260.982 203.394,260.982 204.779 C 260.982 204.883,261.485 205.713,262.100 206.623 C 266.613 213.311,270.345 223.218,272.286 233.668 C 272.990 237.457,273.134 252.853,272.486 255.049 C 271.858 257.176,272.017 258.527,272.682 256.719 C 273.500 254.497,273.498 235.533,272.679 233.225 C 272.363 232.333,272.104 231.104,272.104 230.494 C 272.104 229.885,271.863 228.613,271.569 227.668 C 269.445 220.844,268.643 218.394,268.219 217.424 C 267.466 215.702,265.460 211.556,265.080 210.936 C 264.893 210.630,263.863 208.879,262.792 207.044 C 261.722 205.209,260.731 203.624,260.590 203.522 C 260.450 203.420,259.886 202.669,259.338 201.854 C 256.181 197.159,249.340 190.320,243.555 186.075 C 240.342 183.717,235.286 180.538,234.749 180.538 C 234.547 180.538,234.174 180.287,233.920 179.981 C 233.666 179.676,233.192 179.425,232.866 179.425 C 232.392 179.425,232.419 179.524,233.004 179.915 M163.299 181.237 C 157.768 184.264,148.776 191.546,145.134 195.947 C 144.523 196.686,143.313 198.064,142.447 199.008 C 141.580 199.953,140.871 200.828,140.871 200.955 C 140.871 201.081,140.541 201.585,140.137 202.075 C 139.733 202.565,139.267 203.133,139.102 203.336 C 138.324 204.298,134.250 211.407,133.152 213.718 C 132.475 215.144,131.683 216.784,131.392 217.361 C 131.100 217.938,130.857 218.689,130.850 219.029 C 130.844 219.369,130.593 219.972,130.294 220.367 C 129.995 220.763,129.750 221.453,129.750 221.901 C 129.750 222.348,129.501 223.192,129.196 223.776 C 128.891 224.360,128.641 225.193,128.640 225.627 C 128.639 226.061,128.387 227.014,128.082 227.746 C 127.776 228.478,127.525 229.716,127.525 230.498 C 127.525 231.279,127.354 232.089,127.145 232.298 C 125.967 233.477,125.855 254.117,127.009 257.387 C 127.293 258.192,127.527 259.456,127.528 260.195 C 127.529 260.934,127.779 262.016,128.084 262.600 C 128.388 263.184,128.639 264.102,128.640 264.639 C 128.641 265.177,128.891 266.094,129.196 266.678 C 129.501 267.262,129.750 268.041,129.750 268.409 C 129.750 268.777,130.000 269.592,130.306 270.220 C 130.612 270.848,131.112 271.876,131.418 272.505 C 131.724 273.133,131.974 273.946,131.974 274.313 C 131.974 274.679,132.224 275.186,132.530 275.440 C 132.836 275.694,133.086 276.195,133.086 276.552 C 133.086 276.910,133.336 277.411,133.642 277.665 C 133.948 277.918,134.198 278.429,134.198 278.800 C 134.198 279.171,134.375 279.584,134.592 279.718 C 134.808 279.851,135.142 280.320,135.332 280.759 C 135.710 281.628,135.818 281.806,138.273 285.634 C 139.189 287.062,140.043 288.313,140.171 288.415 C 140.299 288.517,141.296 289.768,142.386 291.196 C 144.616 294.113,151.233 300.719,153.704 302.494 C 156.194 304.282,155.638 303.545,152.641 301.086 C 142.360 292.648,133.671 279.640,129.814 266.914 C 128.356 262.101,127.896 260.346,127.896 259.590 C 127.896 259.165,127.616 257.762,127.273 256.471 C 126.770 254.577,126.650 252.371,126.650 245.042 C 126.650 237.713,126.770 235.506,127.273 233.612 C 127.616 232.322,127.896 230.892,127.896 230.435 C 127.896 229.978,128.123 228.865,128.400 227.962 C 128.677 227.059,129.195 225.320,129.553 224.096 C 130.130 222.116,130.678 220.541,131.613 218.165 C 137.540 203.114,148.141 191.008,163.855 181.348 C 165.361 180.422,164.941 180.339,163.299 181.237 M91.490 185.276 C 90.609 186.774,88.971 189.893,88.971 190.072 C 88.971 190.565,90.059 188.925,91.100 186.865 C 92.322 184.444,92.568 183.443,91.490 185.276 M87.725 192.640 C 87.155 193.834,86.437 195.394,86.130 196.108 C 85.822 196.821,85.335 197.877,85.047 198.455 C 84.758 199.032,84.517 199.782,84.511 200.123 C 84.504 200.463,84.254 201.065,83.955 201.461 C 83.655 201.857,83.411 202.532,83.411 202.962 C 83.411 203.392,83.270 203.903,83.099 204.096 C 82.791 204.444,81.709 207.706,80.583 211.677 C 80.266 212.799,79.862 214.217,79.686 214.829 C 79.272 216.273,78.217 221.392,78.235 221.872 C 78.273 222.864,79.333 219.578,79.333 218.469 C 79.333 217.765,79.532 216.825,79.775 216.380 C 80.018 215.934,80.332 214.819,80.474 213.902 C 80.615 212.984,80.916 211.691,81.144 211.029 C 82.011 208.501,82.374 207.378,82.669 206.302 C 83.269 204.121,84.436 201.123,85.506 199.016 C 85.781 198.475,86.006 197.703,86.006 197.301 C 86.006 196.898,86.256 196.361,86.562 196.108 C 86.867 195.854,87.118 195.441,87.118 195.191 C 87.118 194.940,87.541 193.938,88.059 192.964 C 88.577 191.990,88.947 191.030,88.881 190.832 C 88.815 190.633,88.294 191.447,87.725 192.640 M314.006 198.197 C 314.000 198.428,314.244 199.096,314.548 199.680 C 314.853 200.264,315.103 201.024,315.104 201.368 C 315.106 201.713,315.273 202.098,315.477 202.224 C 315.681 202.350,315.848 202.710,315.848 203.024 C 315.848 203.338,316.070 204.121,316.341 204.763 C 317.007 206.343,317.946 209.352,318.266 210.936 C 318.411 211.650,318.653 212.400,318.806 212.604 C 318.958 212.808,319.197 213.717,319.335 214.625 C 319.474 215.532,319.725 216.450,319.892 216.664 C 320.059 216.878,320.293 218.036,320.410 219.237 C 320.528 220.439,320.801 221.598,321.017 221.814 C 321.232 222.029,321.409 222.971,321.409 223.907 C 321.409 224.843,321.683 226.603,322.019 227.818 C 322.807 230.674,322.985 259.859,322.223 261.242 C 321.975 261.691,321.668 263.359,321.540 264.949 C 321.412 266.539,321.152 268.038,320.963 268.278 C 320.774 268.519,320.524 269.687,320.408 270.873 C 320.291 272.060,320.052 273.214,319.876 273.439 C 319.700 273.663,319.445 274.656,319.310 275.645 C 319.174 276.634,318.841 277.868,318.570 278.388 C 318.299 278.907,318.076 279.782,318.075 280.330 C 318.073 280.879,317.920 281.422,317.734 281.537 C 317.548 281.652,317.277 282.454,317.131 283.320 C 316.986 284.185,316.638 285.222,316.358 285.625 C 316.077 286.027,315.848 286.655,315.848 287.020 C 315.848 287.385,315.692 287.974,315.501 288.328 C 314.773 289.679,313.994 291.510,313.994 291.872 C 313.994 292.258,311.998 296.683,311.372 297.683 C 311.181 297.989,310.930 298.489,310.814 298.795 C 310.699 299.101,310.449 299.601,310.258 299.907 C 310.068 300.213,309.817 300.714,309.702 301.019 C 309.587 301.325,309.337 301.826,309.146 302.132 C 308.956 302.437,308.717 302.896,308.617 303.151 C 308.142 304.353,308.007 304.613,307.323 305.653 C 306.921 306.265,306.419 307.099,306.209 307.507 C 306.000 307.915,305.499 308.749,305.096 309.361 C 304.694 309.972,304.236 310.723,304.080 311.029 C 303.728 311.714,301.316 315.271,300.185 316.768 C 299.727 317.376,298.357 319.211,297.142 320.846 C 295.927 322.481,294.259 324.561,293.435 325.468 C 288.712 330.669,287.080 332.403,286.436 332.901 C 286.041 333.207,285.030 334.124,284.189 334.940 C 282.056 337.009,279.547 339.221,278.092 340.315 C 277.414 340.825,276.665 341.416,276.428 341.630 C 276.190 341.843,274.829 342.883,273.401 343.941 C 271.974 344.998,270.605 346.033,270.359 346.240 C 270.112 346.448,269.803 346.617,269.670 346.617 C 269.538 346.617,268.822 347.090,268.079 347.668 C 267.336 348.246,266.478 348.831,266.172 348.969 C 265.867 349.107,265.116 349.550,264.504 349.952 C 263.892 350.355,263.058 350.855,262.651 351.065 C 262.243 351.274,261.409 351.750,260.797 352.123 C 257.385 354.199,251.332 357.034,248.749 357.765 C 246.056 358.527,238.536 358.644,237.066 357.946 C 236.396 357.628,235.330 357.368,234.698 357.368 C 234.067 357.368,233.550 357.201,233.550 356.997 C 233.550 356.793,233.374 356.627,233.159 356.627 C 232.427 356.627,229.472 355.127,229.472 354.756 C 229.472 354.553,229.930 354.185,230.491 353.938 C 231.052 353.692,231.594 353.404,231.696 353.298 C 231.798 353.192,232.713 352.688,233.728 352.178 C 235.348 351.365,236.857 350.324,236.415 350.324 C 236.330 350.324,235.526 350.736,234.627 351.239 C 233.729 351.742,232.217 352.534,231.268 353.000 C 228.270 354.470,228.295 354.950,231.444 356.445 C 232.943 357.157,234.426 357.739,234.741 357.739 C 235.055 357.739,235.911 357.989,236.643 358.295 C 238.654 359.135,245.655 359.047,248.819 358.142 C 256.915 355.827,272.843 345.835,282.446 337.047 C 284.158 335.480,285.694 334.145,285.859 334.080 C 286.025 334.015,288.339 331.551,291.002 328.605 C 301.555 316.931,309.862 303.736,314.905 290.639 C 315.651 288.703,316.490 286.534,316.770 285.820 C 317.049 285.107,317.558 283.522,317.899 282.298 C 318.241 281.075,318.742 279.323,319.013 278.406 C 320.992 271.711,322.699 262.364,323.075 256.163 C 323.224 253.706,323.453 252.517,323.832 252.230 C 324.605 251.643,324.643 237.998,323.871 237.998 C 323.345 237.998,322.891 235.095,322.892 231.734 C 322.892 230.162,322.327 226.467,321.384 221.872 C 321.175 220.853,320.868 219.268,320.703 218.350 C 320.538 217.433,320.026 215.348,319.565 213.716 C 319.104 212.085,318.586 210.250,318.413 209.639 C 317.782 207.403,317.079 205.176,316.834 204.634 C 316.695 204.328,316.201 202.994,315.735 201.668 C 314.844 199.131,314.025 197.487,314.006 198.197 M161.631 210.463 C 180.240 210.721,195.280 210.725,195.124 210.473 C 195.029 210.320,185.828 210.233,174.677 210.279 C 163.526 210.325,157.655 210.408,161.631 210.463 M203.393 210.473 C 203.237 210.725,217.840 210.721,235.959 210.463 C 239.833 210.408,234.129 210.325,223.284 210.279 C 212.439 210.233,203.488 210.320,203.393 210.473 M245.945 222.428 C 245.945 227.831,245.997 230.042,246.060 227.340 C 246.124 224.639,246.124 220.218,246.060 217.516 C 245.997 214.815,245.945 217.025,245.945 222.428 M77.757 224.096 C 77.604 225.116,77.395 226.617,77.293 227.433 L 77.107 228.916 77.684 227.125 C 78.001 226.140,78.210 224.639,78.148 223.789 L 78.035 222.243 77.757 224.096 M76.592 234.959 C 76.421 237.875,76.367 240.346,76.472 240.451 C 76.727 240.706,77.213 232.591,77.040 230.955 C 76.965 230.241,76.763 232.043,76.592 234.959 M174.791 234.291 L 154.402 234.486 174.677 234.574 C 187.889 234.631,195.031 234.533,195.181 234.291 C 195.307 234.087,195.358 233.960,195.295 234.008 C 195.232 234.057,186.006 234.184,174.791 234.291 M213.650 234.569 C 219.118 234.627,227.960 234.627,233.298 234.569 C 238.635 234.511,234.161 234.464,223.355 234.464 C 212.549 234.464,208.181 234.511,213.650 234.569 M76.464 251.715 C 76.451 253.040,76.565 255.542,76.717 257.275 L 76.994 260.426 77.003 257.646 C 77.008 256.117,76.893 253.614,76.749 252.085 L 76.487 249.305 76.464 251.715 M271.789 258.977 C 271.430 263.975,266.002 277.667,262.057 283.522 C 261.466 284.399,260.982 285.204,260.982 285.311 C 260.982 285.625,257.718 289.824,254.821 293.238 C 250.292 298.575,243.585 304.138,236.924 308.081 C 235.055 309.188,233.703 310.153,233.920 310.226 C 234.138 310.298,234.578 310.140,234.899 309.873 C 235.508 309.368,235.821 309.180,238.441 307.744 C 239.319 307.263,240.120 306.761,240.222 306.629 C 240.324 306.496,241.124 305.923,242.000 305.356 C 246.422 302.489,253.153 296.245,256.466 291.937 C 257.406 290.714,258.369 289.546,258.606 289.342 C 259.066 288.945,263.066 282.909,263.887 281.372 C 267.038 275.478,268.469 272.251,269.803 268.026 C 271.975 261.150,272.167 260.392,272.006 259.303 C 271.907 258.627,271.823 258.501,271.789 258.977 M77.285 263.392 C 78.195 268.339,78.189 268.323,78.033 265.466 C 77.951 263.956,77.687 262.538,77.448 262.315 C 77.116 262.006,77.077 262.264,77.285 263.392 M78.258 268.582 C 78.263 268.786,78.494 269.954,78.769 271.177 L 79.271 273.401 79.289 271.733 C 79.298 270.816,79.068 269.648,78.777 269.138 C 78.485 268.628,78.252 268.378,78.258 268.582 M79.346 273.729 C 79.316 274.464,80.888 280.005,82.197 283.781 C 82.692 285.209,83.231 286.877,83.395 287.488 C 84.008 289.770,89.148 301.095,90.968 304.171 C 91.209 304.578,91.788 305.637,92.254 306.523 C 92.720 307.410,93.172 308.064,93.259 307.977 C 93.413 307.823,91.271 303.612,90.851 303.244 C 90.527 302.960,87.857 297.306,86.562 294.161 C 85.886 292.521,85.308 291.161,84.391 289.051 C 84.056 288.280,83.781 287.353,83.781 286.991 C 83.781 286.629,83.536 286.009,83.237 285.613 C 82.938 285.217,82.687 284.467,82.681 283.945 C 82.674 283.423,82.424 282.672,82.125 282.277 C 81.826 281.881,81.570 281.057,81.557 280.445 C 81.544 279.833,81.288 279.009,80.989 278.613 C 80.690 278.217,80.439 277.300,80.432 276.574 C 80.421 275.465,79.385 272.752,79.346 273.729 M156.019 304.107 C 156.297 304.443,157.131 305.086,157.873 305.537 C 158.615 305.987,159.305 306.452,159.407 306.569 C 160.211 307.495,162.381 308.410,161.631 307.507 C 161.377 307.201,161.034 306.951,160.868 306.951 C 160.702 306.951,159.429 306.173,158.040 305.223 C 156.651 304.273,155.742 303.770,156.019 304.107 M162.743 308.619 C 162.997 308.925,163.380 309.175,163.594 309.175 C 163.807 309.175,164.278 309.443,164.639 309.769 C 165.000 310.096,165.490 310.299,165.727 310.220 C 165.964 310.140,165.515 309.748,164.729 309.347 C 163.943 308.947,163.244 308.494,163.176 308.341 C 163.108 308.188,162.879 308.063,162.667 308.063 C 162.434 308.063,162.465 308.283,162.743 308.619 M94.851 310.751 C 97.507 315.074,102.469 322.044,103.626 323.077 C 103.854 323.281,104.855 324.449,105.850 325.672 C 109.588 330.267,120.842 340.862,124.374 343.111 C 124.986 343.501,125.570 343.929,125.672 344.063 C 126.388 345.001,138.007 352.350,141.326 353.964 C 142.290 354.433,143.176 354.974,143.294 355.165 C 143.413 355.357,143.767 355.514,144.081 355.514 C 144.395 355.514,145.177 355.740,145.820 356.015 C 149.580 357.628,154.620 358.077,158.958 357.184 C 161.893 356.581,164.723 355.566,163.572 355.529 C 163.315 355.521,162.814 355.673,162.460 355.866 C 159.695 357.378,146.432 357.337,146.432 355.817 C 146.432 355.650,146.140 355.514,145.783 355.513 C 145.137 355.511,141.490 353.741,139.018 352.230 C 138.304 351.794,137.261 351.254,136.701 351.030 C 136.140 350.806,135.681 350.490,135.681 350.328 C 135.681 350.166,135.264 349.929,134.754 349.801 C 134.245 349.673,133.828 349.405,133.828 349.205 C 133.828 349.005,133.671 348.842,133.480 348.842 C 132.767 348.842,122.549 341.440,119.184 338.487 C 116.576 336.197,107.341 326.867,105.257 324.416 C 104.150 323.114,103.035 321.833,102.780 321.570 C 102.525 321.306,102.316 320.954,102.315 320.786 C 102.314 320.619,101.847 319.981,101.276 319.370 C 100.705 318.758,98.775 316.047,96.985 313.346 C 93.577 308.200,92.420 306.793,94.851 310.751 M232.067 310.654 C 231.761 310.831,230.426 311.609,229.101 312.383 C 224.928 314.818,217.636 323.784,218.846 324.993 C 218.951 325.099,219.494 324.210,220.053 323.019 C 222.038 318.785,226.518 313.923,229.714 312.534 C 230.153 312.343,230.621 312.009,230.755 311.793 C 230.889 311.577,231.302 311.399,231.673 311.399 C 232.043 311.399,232.554 311.149,232.808 310.843 C 233.312 310.237,232.946 310.143,232.067 310.654 M169.028 312.138 C 169.528 312.578,170.446 313.386,171.067 313.933 C 175.421 317.771,178.046 322.914,178.868 329.218 C 179.527 334.271,178.978 336.790,177.517 335.420 C 177.235 335.156,176.340 334.614,175.527 334.217 C 174.715 333.819,173.768 333.260,173.423 332.974 C 173.078 332.688,172.601 332.519,172.364 332.598 C 172.127 332.677,172.576 333.069,173.362 333.470 C 174.148 333.871,174.875 334.282,174.977 334.384 C 175.588 334.995,178.642 336.307,178.975 336.101 C 180.359 335.246,179.355 325.480,177.541 322.150 C 177.374 321.844,176.898 320.920,176.482 320.096 C 175.334 317.818,171.975 313.957,169.938 312.573 C 168.937 311.893,168.528 311.697,169.028 312.138 M218.060 327.125 C 217.799 328.114,217.651 328.989,217.732 329.070 C 218.026 329.364,218.779 327.018,218.659 326.183 C 218.569 325.560,218.406 325.816,218.060 327.125 M165.431 331.199 C 164.613 332.061,164.331 333.799,164.881 334.592 C 165.297 335.192,169.842 337.849,175.811 340.980 C 177.719 341.980,177.861 342.208,177.016 342.910 C 176.710 343.164,176.460 343.526,176.460 343.715 C 176.460 345.311,171.913 350.461,170.812 350.111 C 170.315 349.954,170.150 350.012,170.318 350.285 C 171.174 351.669,174.454 348.614,176.760 344.286 L 177.986 341.983 177.176 341.427 C 176.730 341.121,175.427 340.359,174.281 339.734 C 164.976 334.658,164.968 334.652,164.968 333.311 C 164.968 331.504,168.039 329.718,168.860 331.047 C 168.986 331.251,169.267 331.418,169.483 331.418 C 169.732 331.418,169.707 331.213,169.416 330.862 C 168.683 329.978,166.406 330.170,165.431 331.199 M217.311 333.364 C 217.257 335.752,217.361 336.607,217.702 336.606 C 218.233 336.604,221.301 334.784,220.804 334.766 C 220.624 334.760,219.915 335.102,219.228 335.526 C 217.732 336.451,217.674 336.357,217.504 332.715 C 217.386 330.185,217.382 330.202,217.311 333.364 M227.618 330.862 C 227.364 331.168,226.947 331.418,226.691 331.418 C 226.435 331.418,225.997 331.702,225.717 332.048 C 225.372 332.476,225.790 332.357,227.016 331.678 C 229.182 330.478,229.817 330.438,230.885 331.432 C 232.807 333.223,231.806 335.071,227.898 336.942 C 226.931 337.405,226.045 337.937,225.930 338.123 C 225.585 338.681,226.069 338.513,227.618 337.535 C 228.426 337.025,229.234 336.608,229.414 336.608 C 230.343 336.608,232.190 334.414,232.190 333.312 C 232.190 330.995,228.949 329.258,227.618 330.862 M223.540 333.086 C 223.286 333.392,222.869 333.642,222.614 333.642 C 222.358 333.642,221.941 333.892,221.687 334.198 C 220.995 335.032,221.495 334.876,223.449 333.649 C 224.417 333.042,224.937 332.541,224.605 332.537 C 224.273 332.533,223.794 332.780,223.540 333.086 M224.524 338.740 C 224.429 338.892,223.228 339.594,221.854 340.297 C 220.480 341.001,219.557 341.644,219.802 341.726 C 220.046 341.807,220.529 341.632,220.874 341.337 C 221.219 341.042,222.293 340.426,223.260 339.969 C 224.976 339.159,225.812 338.462,225.067 338.462 C 224.863 338.462,224.619 338.587,224.524 338.740 M218.729 342.093 C 218.699 343.837,223.208 351.066,224.326 351.066 C 224.694 351.066,228.301 348.860,227.951 348.849 C 227.829 348.845,226.944 349.259,225.986 349.768 C 225.027 350.278,224.188 350.695,224.121 350.695 C 224.055 350.695,223.351 349.819,222.558 348.749 C 221.197 346.911,220.689 345.996,219.315 342.910 C 218.998 342.196,218.734 341.829,218.729 342.093 M155.443 343.519 C 153.159 344.448,154.362 347.874,157.553 349.527 C 158.267 349.897,159.852 350.751,161.075 351.424 C 162.298 352.098,163.936 352.982,164.714 353.390 L 166.129 354.132 165.085 354.821 C 164.511 355.200,164.212 355.511,164.422 355.512 C 164.927 355.515,166.450 354.437,166.450 354.076 C 166.450 353.920,165.188 353.137,163.644 352.336 C 162.101 351.536,160.391 350.646,159.845 350.360 C 155.183 347.920,154.166 346.566,155.342 344.369 C 155.825 343.466,158.697 343.352,159.407 344.208 C 159.661 344.513,160.012 344.764,160.187 344.764 C 160.362 344.764,161.596 345.431,162.929 346.247 C 165.343 347.724,166.229 348.101,165.444 347.316 C 164.957 346.830,164.009 346.280,161.361 344.949 C 160.294 344.414,159.325 343.819,159.207 343.628 C 158.988 343.273,156.242 343.194,155.443 343.519 M236.886 343.837 C 236.632 344.143,236.145 344.393,235.803 344.393 C 235.461 344.393,234.995 344.579,234.767 344.807 C 234.281 345.293,233.333 345.842,230.684 347.173 C 229.618 347.709,228.649 348.303,228.530 348.494 C 228.259 348.933,228.836 348.950,229.305 348.516 C 229.655 348.193,232.286 346.713,235.312 345.137 C 236.180 344.686,236.982 344.167,237.095 343.984 C 237.516 343.303,239.711 343.639,240.529 344.510 C 242.006 346.082,241.115 347.838,238.056 349.383 C 237.375 349.727,236.891 350.082,236.981 350.172 C 237.270 350.461,240.578 348.432,241.151 347.614 C 242.922 345.086,238.845 341.476,236.886 343.837 M167.654 348.815 C 169.504 350.012,169.983 350.200,169.598 349.577 C 169.470 349.370,168.751 348.920,168.001 348.577 C 165.827 347.584,165.791 347.609,167.654 348.815 " stroke="none" fill="#f69b62" fill-rule="evenodd"></path><path id="path4" d="M154.402 40.498 C 144.957 43.918,140.413 57.038,145.227 66.995 L 145.983 68.559 144.084 71.443 C 138.874 79.361,137.043 83.977,134.925 94.532 C 134.443 96.935,134.645 109.259,135.217 112.349 C 135.876 115.913,136.886 119.754,137.217 119.958 C 137.392 120.067,137.535 120.495,137.535 120.910 C 137.535 121.325,137.760 122.108,138.035 122.649 C 138.309 123.190,138.828 124.300,139.187 125.116 C 139.547 125.931,139.987 126.849,140.165 127.155 C 140.343 127.461,140.720 128.211,141.002 128.823 C 141.285 129.435,142.090 130.781,142.791 131.814 C 144.340 134.095,144.291 134.288,141.865 135.494 C 140.808 136.019,139.444 136.774,138.832 137.172 C 138.221 137.569,137.340 138.061,136.876 138.265 C 136.412 138.469,135.024 139.306,133.792 140.124 C 132.559 140.943,131.482 141.613,131.397 141.613 C 131.249 141.613,126.309 145.146,124.015 146.892 C 118.227 151.297,110.394 158.653,106.000 163.809 C 104.892 165.109,103.795 166.372,103.563 166.615 C 101.600 168.669,95.248 177.774,92.722 182.157 C 90.595 185.847,90.073 186.810,88.776 189.435 C 88.021 190.964,87.255 192.465,87.073 192.771 C 86.891 193.077,86.649 193.577,86.536 193.883 C 86.422 194.189,86.089 194.981,85.797 195.644 C 83.724 200.333,83.289 201.492,81.584 206.858 C 78.639 216.131,77.066 223.349,76.374 230.769 C 75.876 236.118,75.888 254.459,76.394 259.668 C 76.769 263.529,77.079 265.422,78.432 272.104 C 79.206 275.923,81.007 282.502,81.603 283.684 C 81.782 284.038,81.928 284.513,81.928 284.740 C 81.928 284.967,82.158 285.678,82.439 286.320 C 82.720 286.963,83.243 288.323,83.601 289.342 C 84.204 291.059,84.799 292.511,86.259 295.829 C 86.941 297.378,89.973 303.490,90.581 304.541 C 90.817 304.949,91.582 306.284,92.280 307.507 C 94.840 311.990,99.829 319.227,102.866 322.861 C 109.026 330.233,116.429 337.578,121.965 341.810 C 122.882 342.511,123.853 343.296,124.123 343.554 C 124.392 343.811,124.728 344.022,124.868 344.022 C 125.009 344.022,125.539 344.398,126.046 344.858 C 127.229 345.929,133.666 350.241,135.867 351.437 C 136.274 351.658,137.609 352.409,138.832 353.106 C 148.460 358.587,157.265 359.588,164.597 356.035 C 167.685 354.538,167.794 353.979,165.246 352.724 C 164.175 352.197,162.715 351.419,162.002 350.996 C 161.288 350.572,159.787 349.730,158.665 349.125 C 155.318 347.319,154.769 346.503,155.713 344.739 C 156.314 343.616,158.012 343.858,160.605 345.436 C 161.883 346.214,163.179 346.968,163.485 347.112 C 163.791 347.256,165.042 347.941,166.265 348.633 C 167.488 349.325,169.200 350.270,170.070 350.732 L 171.650 351.573 172.966 350.300 C 174.899 348.431,178.313 343.127,178.313 341.994 C 178.313 341.619,177.490 340.981,175.871 340.101 C 175.445 339.869,173.944 339.039,172.534 338.257 C 171.125 337.474,169.463 336.567,168.840 336.242 C 165.361 334.423,164.573 333.102,166.172 331.768 C 167.400 330.744,167.897 330.902,173.679 334.149 C 174.495 334.607,175.961 335.431,176.936 335.980 C 179.006 337.145,179.678 337.224,179.925 336.330 C 180.391 334.645,180.495 332.159,180.179 330.306 C 179.450 326.041,179.101 324.435,178.757 323.767 C 178.562 323.387,178.023 322.243,177.561 321.223 C 176.674 319.267,173.639 314.934,172.498 313.994 C 169.572 311.584,168.193 310.675,164.041 308.419 C 163.225 307.976,161.841 307.131,160.964 306.541 C 160.087 305.951,159.282 305.468,159.175 305.468 C 158.654 305.468,151.521 299.675,148.224 296.574 C 145.501 294.013,139.160 285.886,137.808 283.225 C 137.653 282.919,137.200 282.169,136.802 281.557 C 135.916 280.195,132.720 273.799,132.703 273.353 C 132.696 273.176,132.368 272.363,131.974 271.548 C 131.580 270.732,131.252 269.854,131.245 269.596 C 131.238 269.339,131.078 268.838,130.889 268.484 C 130.154 267.109,128.742 261.452,127.722 255.792 C 126.356 248.216,127.679 228.686,129.793 225.209 C 129.917 225.005,130.132 224.337,130.272 223.726 C 131.623 217.802,136.807 207.891,142.441 200.454 C 146.067 195.669,157.034 185.357,158.498 185.357 C 158.633 185.357,159.353 184.898,160.096 184.337 C 162.868 182.248,172.830 177.272,175.545 176.621 C 176.150 176.476,176.812 176.229,177.016 176.071 C 177.220 175.913,178.054 175.664,178.869 175.517 C 179.685 175.370,180.519 175.147,180.723 175.021 C 185.215 172.242,205.933 171.875,216.311 174.390 C 221.219 175.580,225.002 176.751,225.561 177.255 C 225.754 177.429,226.129 177.572,226.394 177.572 C 226.864 177.572,231.333 179.504,232.437 180.184 C 232.743 180.372,233.494 180.774,234.106 181.076 C 260.434 194.082,276.203 225.501,271.791 256.163 C 270.532 264.915,266.227 276.411,261.686 283.151 C 261.095 284.028,260.612 284.836,260.612 284.947 C 260.612 285.557,254.987 292.483,252.018 295.528 C 247.529 300.133,244.132 302.968,239.665 305.839 C 236.076 308.145,235.938 308.225,232.811 309.808 C 226.136 313.188,222.171 316.841,219.503 322.071 C 216.333 328.284,215.686 339.428,218.642 336.895 C 218.991 336.596,220.028 335.981,220.945 335.529 C 221.863 335.076,223.114 334.396,223.726 334.018 C 227.664 331.581,229.371 330.964,230.369 331.618 C 232.137 332.776,231.392 334.762,228.730 335.987 C 228.424 336.128,226.673 337.072,224.838 338.085 C 223.003 339.098,220.792 340.294,219.926 340.743 C 218.023 341.728,217.937 342.398,219.355 345.193 C 221.676 349.767,224.636 352.591,225.554 351.106 C 225.666 350.925,226.636 350.312,227.708 349.744 C 228.780 349.177,230.658 348.160,231.881 347.486 C 233.105 346.811,234.356 346.143,234.662 346.002 C 234.968 345.860,235.840 345.357,236.601 344.883 C 238.382 343.774,239.249 343.796,240.176 344.974 C 241.047 346.081,240.700 347.366,239.347 348.047 C 238.911 348.266,237.720 348.942,236.701 349.548 C 235.681 350.154,234.013 351.090,232.994 351.627 C 231.974 352.164,230.639 352.869,230.028 353.194 C 227.054 354.774,228.201 356.007,234.847 358.376 C 237.530 359.332,246.931 359.322,249.932 358.360 C 252.427 357.560,260.591 353.463,263.763 351.420 C 264.374 351.026,265.120 350.586,265.420 350.443 C 265.720 350.300,267.305 349.269,268.942 348.152 C 289.269 334.286,304.201 316.417,313.904 294.347 C 314.218 293.633,314.637 292.727,314.836 292.333 C 315.034 291.939,315.331 291.189,315.495 290.665 C 315.658 290.141,316.146 288.795,316.579 287.674 C 317.682 284.814,318.615 281.960,319.366 279.147 C 319.720 277.822,320.142 276.321,320.303 275.811 C 321.246 272.839,322.801 264.357,323.223 259.883 C 323.407 257.936,323.737 256.314,323.965 256.238 C 324.198 256.160,324.374 255.222,324.374 254.062 C 324.374 252.597,324.244 252.067,323.911 252.177 C 323.399 252.346,322.973 254.875,322.927 258.017 C 322.874 261.606,320.828 272.266,319.013 278.406 C 318.742 279.323,318.241 281.075,317.899 282.298 C 317.558 283.522,317.049 285.107,316.770 285.820 C 316.490 286.534,315.651 288.703,314.905 290.639 C 309.862 303.736,301.555 316.931,291.002 328.605 C 288.339 331.551,286.025 334.015,285.859 334.080 C 285.694 334.145,284.158 335.480,282.446 337.047 C 272.843 345.835,256.915 355.827,248.819 358.142 C 245.655 359.047,238.654 359.135,236.643 358.295 C 235.911 357.989,235.055 357.739,234.741 357.739 C 234.426 357.739,232.943 357.157,231.444 356.445 C 228.295 354.950,228.270 354.468,231.268 353.002 C 240.631 348.421,242.676 346.524,240.477 344.458 C 239.609 343.643,237.489 343.346,237.095 343.984 C 236.982 344.167,236.180 344.686,235.312 345.137 C 234.445 345.589,232.901 346.421,231.881 346.986 C 230.862 347.552,229.076 348.528,227.913 349.156 C 226.749 349.784,225.461 350.508,225.050 350.764 C 223.951 351.451,222.015 349.415,220.184 345.649 C 218.361 341.901,218.339 342.115,220.667 340.919 C 221.738 340.369,223.448 339.436,224.467 338.845 C 225.487 338.254,227.071 337.394,227.989 336.935 C 231.834 335.009,232.785 333.203,230.885 331.432 C 229.736 330.363,229.210 330.461,225.717 332.397 C 216.219 337.661,217.078 337.637,217.348 332.623 C 217.885 322.676,223.239 314.754,232.168 310.694 C 239.330 307.439,249.272 299.777,254.821 293.238 C 257.718 289.824,260.982 285.625,260.982 285.311 C 260.982 285.204,261.466 284.399,262.057 283.522 C 266.478 276.960,270.778 265.711,272.075 257.313 C 272.308 255.805,272.586 254.429,272.693 254.256 C 273.202 253.432,272.874 236.833,272.286 233.668 C 270.345 223.218,266.613 213.311,262.100 206.623 C 261.485 205.713,260.982 204.883,260.982 204.779 C 260.982 203.394,247.969 189.472,244.823 187.490 C 243.989 186.964,243.071 186.305,242.784 186.026 C 240.996 184.285,231.068 178.700,227.237 177.280 C 223.458 175.879,218.244 174.235,217.579 174.235 C 217.161 174.235,216.491 174.060,216.090 173.845 C 215.689 173.631,214.157 173.302,212.685 173.114 C 211.213 172.926,209.259 172.608,208.341 172.408 C 203.683 171.391,191.116 172.067,183.874 173.723 C 160.300 179.117,140.288 196.135,131.613 218.165 C 130.678 220.541,130.130 222.116,129.553 224.096 C 129.195 225.320,128.677 227.059,128.400 227.962 C 128.123 228.865,127.896 229.978,127.896 230.435 C 127.896 230.892,127.616 232.322,127.273 233.612 C 126.367 237.024,126.367 253.059,127.273 256.471 C 127.616 257.762,127.896 259.165,127.896 259.590 C 127.896 260.346,128.356 262.101,129.814 266.914 C 133.793 280.042,142.560 292.927,153.661 301.960 C 156.412 304.198,160.670 307.116,162.373 307.929 C 162.678 308.075,163.012 308.290,163.114 308.407 C 163.216 308.524,164.133 309.036,165.153 309.546 C 166.172 310.056,167.090 310.556,167.192 310.658 C 167.294 310.760,168.367 311.510,169.576 312.325 C 171.927 313.909,175.246 317.644,176.482 320.096 C 176.898 320.920,177.374 321.844,177.541 322.150 C 179.355 325.480,180.359 335.246,178.975 336.101 C 178.642 336.307,175.590 334.996,174.977 334.384 C 174.874 334.282,174.207 333.886,173.494 333.504 C 172.780 333.122,171.317 332.330,170.242 331.743 C 167.240 330.105,164.968 330.803,164.968 333.363 C 164.968 334.643,165.039 334.692,174.281 339.734 C 175.427 340.359,176.730 341.121,177.176 341.427 L 177.986 341.983 176.760 344.286 C 173.957 349.547,171.822 351.204,169.520 349.903 C 168.749 349.468,167.034 348.525,165.709 347.808 C 164.384 347.091,162.677 346.113,161.917 345.634 C 161.156 345.155,160.384 344.764,160.201 344.764 C 160.018 344.764,159.661 344.513,159.407 344.208 C 158.697 343.352,155.825 343.466,155.342 344.369 C 154.166 346.566,155.183 347.920,159.845 350.360 C 160.391 350.646,162.105 351.537,163.652 352.340 C 166.896 354.023,166.936 354.247,164.223 355.552 C 158.935 358.096,151.129 358.293,145.820 356.015 C 145.177 355.740,144.395 355.514,144.081 355.514 C 143.767 355.514,143.413 355.357,143.294 355.165 C 143.176 354.974,142.290 354.433,141.326 353.964 C 138.007 352.350,126.388 345.001,125.672 344.063 C 125.570 343.929,124.986 343.501,124.374 343.111 C 120.842 340.862,109.588 330.267,105.850 325.672 C 104.855 324.449,103.854 323.281,103.626 323.077 C 102.109 321.723,96.240 313.200,92.905 307.507 C 91.949 305.876,91.016 304.291,90.832 303.985 C 89.276 301.405,83.972 289.637,83.395 287.488 C 83.231 286.877,82.692 285.209,82.197 283.781 C 80.540 279.002,79.589 275.395,78.433 269.509 C 78.092 267.776,77.659 265.607,77.471 264.690 C 76.029 257.673,76.027 232.615,77.467 225.765 C 77.660 224.847,78.089 222.595,78.421 220.760 C 78.753 218.925,79.269 216.506,79.567 215.385 C 81.106 209.598,82.679 204.570,83.099 204.096 C 83.270 203.903,83.411 203.392,83.411 202.962 C 83.411 202.532,83.655 201.857,83.955 201.461 C 84.254 201.065,84.504 200.463,84.511 200.123 C 84.517 199.782,84.758 199.032,85.047 198.455 C 85.335 197.877,85.822 196.821,86.129 196.108 C 87.399 193.161,92.145 183.871,93.354 181.968 C 93.696 181.429,94.629 179.928,95.428 178.631 C 101.879 168.160,113.233 155.820,124.189 147.373 C 125.922 146.037,127.507 144.813,127.711 144.653 C 127.915 144.494,129.416 143.500,131.047 142.446 C 132.678 141.392,134.214 140.356,134.461 140.144 C 134.707 139.932,134.985 139.759,135.079 139.759 C 135.173 139.759,136.472 139.040,137.968 138.161 C 139.463 137.282,141.492 136.176,142.477 135.704 C 144.754 134.611,144.902 134.165,143.622 132.243 C 142.687 130.840,141.676 129.066,140.607 126.955 C 139.881 125.521,139.044 123.501,137.531 119.525 C 135.385 113.889,134.330 102.333,135.342 95.558 C 136.038 90.903,137.937 83.741,138.706 82.873 C 138.877 82.679,139.018 82.310,139.018 82.053 C 139.018 81.506,141.333 76.687,142.372 75.070 C 142.766 74.458,143.203 73.707,143.345 73.401 C 143.486 73.095,144.239 71.996,145.017 70.958 C 146.692 68.723,146.677 68.859,145.515 66.449 C 140.967 57.022,147.343 40.819,155.618 40.773 C 156.173 40.770,156.877 40.605,157.183 40.408 C 157.968 39.900,155.865 39.969,154.402 40.498 M161.260 40.372 C 161.566 40.589,162.197 40.770,162.663 40.773 C 164.928 40.788,169.464 44.097,171.140 46.957 C 172.181 48.734,173.371 49.048,175.290 48.054 C 176.895 47.223,182.075 45.764,186.654 44.853 C 192.727 43.645,205.495 43.564,211.307 44.696 C 216.122 45.635,219.237 46.397,220.445 46.933 C 221.088 47.218,221.922 47.457,222.299 47.464 C 222.676 47.472,223.401 47.716,223.911 48.007 C 225.601 48.973,226.674 48.711,227.824 47.052 C 229.892 44.067,234.240 40.816,236.249 40.752 C 236.701 40.738,237.405 40.569,237.813 40.376 C 238.373 40.111,238.174 40.063,237.004 40.178 C 233.887 40.485,229.036 43.870,227.424 46.863 C 226.643 48.313,226.063 48.461,224.202 47.685 C 220.778 46.257,217.316 45.316,211.121 44.128 C 204.941 42.943,193.816 42.953,187.952 44.150 C 187.034 44.337,185.397 44.649,184.314 44.843 C 182.446 45.178,181.012 45.562,178.499 46.403 C 177.887 46.608,176.824 46.914,176.136 47.084 C 175.449 47.255,174.706 47.573,174.487 47.793 C 173.731 48.549,172.425 48.239,171.874 47.173 C 170.890 45.272,167.779 42.394,165.386 41.174 C 163.784 40.356,160.280 39.675,161.260 40.372 M242.076 40.408 C 242.382 40.605,243.026 40.770,243.507 40.773 C 245.018 40.783,248.733 43.050,250.447 45.009 C 255.534 50.825,256.852 60.513,253.426 66.914 C 252.653 68.358,252.673 69.028,253.521 70.108 C 254.355 71.169,257.947 77.163,258.833 78.971 C 260.739 82.858,261.861 86.247,263.128 91.937 C 263.904 95.427,264.013 109.417,263.290 112.882 C 261.947 119.322,259.060 126.612,255.884 131.586 C 254.361 133.971,254.510 134.540,256.905 135.474 C 257.210 135.593,258.295 136.197,259.314 136.815 C 260.334 137.434,261.668 138.192,262.280 138.501 C 271.643 143.227,287.739 157.061,296.315 167.754 C 299.194 171.344,304.852 179.374,305.583 180.908 C 305.729 181.214,306.350 182.298,306.964 183.318 C 307.577 184.337,308.724 186.423,309.513 187.952 C 310.302 189.481,311.383 191.549,311.915 192.548 C 312.447 193.547,312.882 194.506,312.882 194.679 C 312.882 194.852,313.359 196.036,313.942 197.311 C 314.525 198.586,315.269 200.380,315.595 201.297 C 315.921 202.215,316.390 203.466,316.638 204.078 C 317.066 205.136,317.726 207.203,318.413 209.639 C 318.586 210.250,319.104 212.085,319.565 213.716 C 320.026 215.348,320.538 217.433,320.703 218.350 C 320.868 219.268,321.175 220.853,321.384 221.872 C 322.327 226.467,322.892 230.162,322.892 231.734 C 322.891 235.095,323.345 237.998,323.871 237.998 C 324.570 237.998,324.579 234.078,323.880 233.810 C 323.589 233.698,323.357 232.957,323.318 232.009 C 323.197 229.140,322.033 221.294,321.430 219.286 C 321.245 218.669,320.718 216.497,320.259 214.458 C 319.801 212.419,319.309 210.500,319.166 210.195 C 319.023 209.889,318.622 208.638,318.275 207.414 C 317.928 206.191,317.407 204.718,317.117 204.140 C 316.827 203.563,316.589 202.803,316.589 202.450 C 316.589 202.098,316.345 201.486,316.045 201.090 C 315.746 200.695,315.496 200.092,315.489 199.752 C 315.483 199.412,315.242 198.661,314.953 198.084 C 314.665 197.507,314.140 196.367,313.787 195.551 C 313.434 194.736,313.001 193.818,312.826 193.513 C 312.650 193.207,312.405 192.706,312.281 192.400 C 311.027 189.313,305.799 180.110,302.955 175.984 C 302.196 174.884,301.010 173.164,300.319 172.163 C 299.628 171.162,298.872 170.176,298.638 169.972 C 298.404 169.768,297.387 168.517,296.378 167.192 C 287.612 155.681,271.237 142.319,257.150 135.180 C 255.158 134.171,255.144 133.830,256.962 130.772 C 266.438 114.832,267.263 95.807,259.222 78.694 C 258.416 76.980,255.559 72.115,254.481 70.621 C 253.344 69.046,253.193 68.427,253.704 67.423 C 255.676 63.554,256.405 55.554,255.086 52.271 C 252.343 45.442,249.055 41.799,244.443 40.475 C 242.503 39.918,241.264 39.883,242.076 40.408 M180.686 80.566 C 176.597 82.115,175.846 89.053,179.440 92.078 C 184.355 96.213,189.494 86.801,185.049 81.804 C 184.581 81.278,182.125 79.958,181.882 80.102 C 181.856 80.118,181.318 80.326,180.686 80.566 M215.570 80.625 C 210.515 82.856,211.809 93.087,217.140 93.036 C 222.537 92.984,223.675 82.754,218.523 80.601 C 217.049 79.985,217.021 79.985,215.570 80.625 M184.682 82.262 C 186.704 84.504,186.540 89.307,184.370 91.414 C 180.096 95.565,175.392 87.772,178.912 82.371 C 180.140 80.487,183.032 80.432,184.682 82.262 M219.205 81.566 C 223.865 85.232,220.332 94.986,215.399 92.072 C 212.050 90.094,212.168 82.569,215.570 81.168 C 216.853 80.639,218.216 80.789,219.205 81.566 M196.036 102.674 C 193.190 104.116,191.439 105.786,190.797 107.671 C 189.912 110.267,190.860 110.949,196.015 111.430 L 198.703 111.681 198.703 118.284 C 198.703 126.068,199.093 125.558,193.766 124.731 C 183.834 123.190,179.849 120.652,178.073 114.736 C 177.442 112.634,175.929 113.183,175.792 115.564 C 175.405 122.266,184.938 127.394,198.332 127.690 L 203.707 127.809 199.259 127.551 C 187.556 126.873,179.495 123.658,176.869 118.620 C 175.937 116.831,175.788 113.809,176.632 113.809 C 177.250 113.809,177.943 114.919,177.943 115.909 C 177.943 118.112,183.924 123.448,186.393 123.448 C 186.761 123.448,187.235 123.620,187.445 123.831 C 187.860 124.246,190.107 124.709,194.890 125.366 C 199.285 125.969,199.111 126.276,198.989 118.114 L 198.888 111.402 196.664 111.137 C 194.381 110.866,191.710 110.174,191.169 109.714 C 189.947 108.676,192.858 104.740,195.926 103.282 C 196.739 102.895,197.695 102.436,198.049 102.262 C 201.556 100.540,210.951 107.274,208.480 109.740 C 207.982 110.237,203.908 111.214,202.332 111.214 L 200.927 111.214 200.927 118.251 C 200.927 126.418,200.715 126.054,205.019 125.285 C 206.337 125.050,208.165 124.738,209.082 124.592 C 211.627 124.186,215.132 122.878,217.409 121.483 C 218.920 120.557,221.687 117.364,221.687 116.545 C 221.687 115.231,222.356 113.809,222.975 113.809 C 223.944 113.809,223.722 117.243,222.643 118.952 C 221.001 121.553,215.559 125.275,213.340 125.314 C 212.935 125.322,212.187 125.566,211.677 125.857 C 211.168 126.149,210.167 126.400,209.453 126.416 C 207.630 126.456,203.693 127.452,205.190 127.494 C 211.166 127.661,220.408 123.451,222.968 119.395 C 223.953 117.835,224.521 114.677,223.966 113.852 C 223.551 113.235,221.688 113.584,221.685 114.280 C 221.664 118.953,215.180 123.493,207.260 124.380 C 205.952 124.527,204.387 124.789,203.784 124.962 C 201.430 125.637,201.297 125.272,201.297 118.107 L 201.297 111.681 203.978 111.416 C 209.876 110.835,210.869 108.985,207.307 105.217 C 204.074 101.797,199.711 100.812,196.036 102.674 M182.458 191.169 C 178.477 192.234,173.506 195.822,172.362 198.455 C 172.170 198.897,171.860 199.509,171.672 199.815 C 170.115 202.355,169.614 205.771,170.806 205.717 C 171.194 205.699,171.268 205.612,170.992 205.501 C 168.987 204.692,174.140 195.254,177.351 193.853 C 177.778 193.667,178.378 193.371,178.684 193.195 C 181.550 191.552,181.812 191.492,186.202 191.486 C 190.388 191.481,190.496 191.461,188.797 191.021 C 186.602 190.451,184.999 190.489,182.458 191.169 M207.745 191.262 C 204.996 192.033,202.555 193.422,200.481 195.395 C 199.082 196.725,197.961 197.068,197.961 196.164 C 197.961 195.427,192.273 191.659,191.160 191.659 C 190.606 191.659,192.121 192.745,192.694 192.759 C 193.358 192.776,197.174 195.701,197.622 196.536 C 198.179 197.579,198.891 197.369,200.674 195.636 C 206.681 189.798,216.588 189.913,222.566 195.890 C 224.643 197.968,226.931 202.153,227.012 204.024 L 227.062 205.190 224.282 205.410 L 221.501 205.630 224.467 205.595 L 227.433 205.561 227.389 204.154 C 227.139 196.127,216.140 188.908,207.745 191.262 M185.268 198.223 C 185.730 198.312,186.397 198.309,186.751 198.216 C 187.106 198.123,186.728 198.050,185.913 198.055 C 185.097 198.059,184.807 198.135,185.268 198.223 M210.848 198.223 C 211.309 198.312,211.976 198.309,212.331 198.216 C 212.685 198.123,212.308 198.050,211.492 198.055 C 210.677 198.059,210.387 198.135,210.848 198.223 M181.774 199.375 C 180.169 200.411,177.943 202.924,177.943 203.701 C 177.943 204.730,176.599 205.339,174.042 205.469 L 171.455 205.601 174.271 205.673 C 177.377 205.754,177.512 205.675,178.852 203.032 C 179.515 201.724,181.892 199.460,182.630 199.432 C 182.804 199.426,183.271 199.175,183.667 198.876 C 184.948 197.907,183.430 198.307,181.774 199.375 M189.008 199.135 C 190.857 199.983,192.703 201.514,193.182 202.595 C 193.363 203.003,193.666 203.587,193.856 203.892 C 194.045 204.198,194.291 204.741,194.401 205.097 C 194.577 205.666,195.119 205.745,198.784 205.736 L 202.966 205.727 203.667 204.161 C 204.599 202.080,206.316 200.287,208.263 199.363 C 209.137 198.947,209.769 198.524,209.666 198.421 C 208.837 197.592,204.659 201.050,203.474 203.545 L 202.605 205.375 198.805 205.375 L 195.005 205.375 194.480 204.119 C 193.443 201.636,189.560 198.253,187.874 198.363 C 187.611 198.380,188.121 198.727,189.008 199.135 M214.510 199.101 C 216.521 200.026,218.540 202.080,219.440 204.113 C 219.837 205.011,220.414 205.746,220.721 205.746 C 221.132 205.746,221.039 205.485,220.372 204.765 C 219.872 204.226,219.462 203.587,219.462 203.347 C 219.462 202.124,214.745 198.258,213.381 198.363 C 213.158 198.380,213.666 198.712,214.510 199.101 M153.178 210.444 C 150.983 211.526,150.880 212.078,150.880 222.768 L 150.880 232.413 152.193 233.726 L 153.506 235.039 174.529 234.943 L 195.551 234.847 195.649 222.639 C 195.726 213.118,195.644 210.365,195.279 210.133 C 194.267 209.491,154.516 209.785,153.178 210.444 M202.992 210.406 C 202.286 211.113,202.104 233.027,202.793 234.315 C 203.260 235.186,242.587 235.459,244.463 234.605 C 246.582 233.639,246.700 233.067,246.826 223.090 C 247.010 208.546,249.263 209.824,223.430 209.824 C 205.874 209.824,203.507 209.891,202.992 210.406 M195.181 222.428 L 195.181 234.476 175.718 234.585 C 154.951 234.700,153.446 234.632,152.337 233.523 C 151.442 232.629,151.214 213.077,152.085 211.973 C 153.472 210.216,153.474 210.216,174.977 210.300 L 195.181 210.380 195.181 222.428 M243.872 210.771 C 246.069 211.650,246.154 212.092,246.148 222.538 C 246.142 232.904,246.038 233.450,243.920 234.177 C 242.559 234.645,204.913 234.888,203.737 234.437 C 203.126 234.202,202.799 211.041,203.398 210.442 C 203.983 209.857,242.369 210.169,243.872 210.771 M159.314 241.364 C 158.517 241.828,158.293 289.375,159.078 291.540 C 160.048 294.217,159.580 294.149,177.757 294.270 C 186.728 294.330,194.444 294.285,194.903 294.170 L 195.737 293.962 195.737 267.688 C 195.737 244.071,195.677 241.391,195.150 241.189 C 194.107 240.788,160.016 240.955,159.314 241.364 M202.992 241.546 C 202.090 242.449,202.107 292.879,203.010 293.782 C 203.549 294.320,205.300 294.371,220.055 294.272 L 236.499 294.161 237.527 293.134 L 238.554 292.106 238.657 267.127 C 238.749 244.648,238.700 242.090,238.167 241.556 C 237.275 240.664,203.884 240.655,202.992 241.546 M195.276 267.789 L 195.181 293.791 178.188 293.791 L 161.196 293.791 160.325 292.778 C 159.029 291.271,158.996 290.533,159.113 265.246 L 159.222 241.891 176.830 241.705 C 186.515 241.603,194.649 241.580,194.905 241.653 C 195.275 241.759,195.351 247.165,195.276 267.789 M237.998 266.856 L 237.998 291.993 237.042 292.892 L 236.085 293.791 219.711 293.791 L 203.336 293.791 203.241 267.864 C 203.185 252.568,203.284 241.852,203.483 241.729 C 203.669 241.614,211.511 241.565,220.910 241.620 L 237.998 241.720 237.998 266.856 " stroke="none" fill="#f6b298" fill-rule="evenodd"></path></g></svg>